<svg xmlns="http://www.w3.org/2000/svg" width="746.835" height="708.347" viewBox="0 0 746.835 708.347">
  <path id="Union_45" data-name="Union 45" d="M-8065.109-719.653a170.576,170.576,0,0,1-64.154-12.5v.033c-.585-.241-1.208-.517-1.833-.723a347.25,347.25,0,0,0-233.34-8.579c-.412.138-.829.274-1.279.45a153.1,153.1,0,0,1-155.457-37.036,152.624,152.624,0,0,1-45.11-108.471A154.083,154.083,0,0,1-8565.4-903a347.336,347.336,0,0,0,1.985-37.074,346.972,346.972,0,0,0-58.925-193.494A115.644,115.644,0,0,1-8642-1198.232a115.447,115.447,0,0,1,33.7-81.627,115.742,115.742,0,0,1,103.416-32.194c.171.033.415.07.589.1a346.832,346.832,0,0,0,291.569-80.225l.03.038a144.528,144.528,0,0,1,197.228,6.216,144.04,144.04,0,0,1,42.622,102.474,144.716,144.716,0,0,1-3.282,30.629,346.3,346.3,0,0,0-7.871,73.7,346.678,346.678,0,0,0,59.611,194.1,169.807,169.807,0,0,1,29.221,95.362,169.51,169.51,0,0,1-49.478,119.939A169.364,169.364,0,0,1-8065.1-719.653Zm-565.7-95.806a17.986,17.986,0,0,1,17.982-17.982,17.983,17.983,0,0,1,17.981,17.982,17.983,17.983,0,0,1-17.981,17.984A17.987,17.987,0,0,1-8630.812-815.459Zm663.723-493.424a35.963,35.963,0,0,1,35.964-35.966,35.963,35.963,0,0,1,35.961,35.966,35.96,35.96,0,0,1-35.961,35.959A35.96,35.96,0,0,1-7967.09-1308.883Z" transform="translate(8642 1428)" fill="#ed175f" opacity="0.1"/>
</svg>
