<svg xmlns="http://www.w3.org/2000/svg" xmlns:xlink="http://www.w3.org/1999/xlink" width="2335.429" height="1609.617" viewBox="0 0 2335.429 1609.617">
  <defs>
    <clipPath id="clip-path">
      <path id="path304" d="M1410.885,1333.159c-106.09-10.041-205.765-54.056-301.316-101.257s-190.276-98.592-293.451-125.295c-116.862-30.235-239.443-27.48-359.146-43.053S212.846,1009.381,134.906,917.2C64.46,833.888,42.941,719.142,43.832,610.054c.834-101.918,21.428-208.9,87.73-286.314,71.085-82.989,183.167-118.79,291.522-133s219.022-10.841,325.847-33.9c170.607-36.823,319.028-137.893,466.1-231.886S1519.623-260.3,1693.689-273.2s367.874,76.471,419.338,243.25c34.36,111.342.8,232.119,14.734,347.795,15.2,126.18,85.557,238.243,157.879,342.74,31.072,44.9,63.259,90.1,80.944,141.763s18.987,111.83-10.017,158.09c-31.3,49.942-91.588,74.517-150,82.419s-117.86,2.252-176.576,7.495c-116.5,10.435-238.916,67.536-314.422,158.657-78.713,94.983-177.749,136.175-304.685,124.147Z" transform="translate(-43.805 274.421)" fill="#fff"/>
    </clipPath>
  </defs>
  <g id="g300" transform="translate(-43.805 274.421)">
    <g id="g302" transform="translate(43.805 -274.421)" clip-path="url(#clip-path)">
      <path id="path314" d="M1410.885,1333.159c-106.09-10.041-205.765-54.056-301.316-101.257s-190.276-98.592-293.451-125.295c-116.862-30.235-239.443-27.48-359.146-43.053S212.846,1009.381,134.906,917.2C64.46,833.888,42.941,719.142,43.832,610.054c.834-101.918,21.428-208.9,87.73-286.314,71.085-82.989,183.167-118.79,291.522-133s219.022-10.841,325.847-33.9c170.607-36.823,319.028-137.893,466.1-231.886S1519.623-260.3,1693.689-273.2s367.874,76.471,419.338,243.25c34.36,111.342.8,232.119,14.734,347.795,15.2,126.18,85.557,238.243,157.879,342.74,31.072,44.9,63.259,90.1,80.944,141.763s18.987,111.83-10.017,158.09c-31.3,49.942-91.588,74.517-150,82.419s-117.86,2.252-176.576,7.495c-116.5,10.435-238.916,67.536-314.422,158.657-78.713,94.983-177.749,136.175-304.685,124.147" transform="translate(-43.805 274.421)" fill="#fff"/>
    </g>
  </g>
</svg>
