<svg xmlns="http://www.w3.org/2000/svg" width="1897.151" height="880.227" viewBox="0 0 1897.151 880.227">
  <path id="Subtraction_8" data-name="Subtraction 8" d="M-10014.469-8006.89c-18.013,0-36.8-.862-55.83-2.564-18.121-1.621-36.928-4.042-55.9-7.2a935.764,935.764,0,0,1-109.148-25.3c-41.751-12.248-83.914-26.655-124.688-40.588l-.036-.012c-27.115-9.267-55.153-18.848-82.854-27.719-31.033-9.938-58.3-17.9-83.365-24.327-30.073-7.716-57.676-13.453-84.383-17.54-14.473-2.214-28.849-3.952-42.73-5.164-14.558-1.271-29.084-2.01-43.174-2.194-2.4-.031-4.846-.047-7.272-.047-11.163,0-22.705.338-34.3,1-11.05.635-22.526,1.59-34.112,2.839-21.374,2.305-43.541,5.622-67.769,10.138-45.013,8.391-90.523,19.775-134.536,30.786l-.009,0c-24.61,6.157-50.058,12.522-75.21,18.313-28.174,6.486-52.912,11.526-75.629,15.41a680.428,680.428,0,0,1-114.223,9.985c-36.647,0-71.631-3.317-103.979-9.864a409.868,409.868,0,0,1-49.373-13.16,345.253,345.253,0,0,1-46.345-19.382l-.01-.006c-8.582-4.373-16.954-9.139-24.884-14.167-8.108-5.141-15.976-10.7-23.384-16.51a273.334,273.334,0,0,1-21.7-18.956,268.321,268.321,0,0,1-19.825-21.508c-5.418-6.566-10.593-13.479-15.381-20.545-4.685-6.913-9.134-14.172-13.223-21.572-4-7.234-7.761-14.807-11.188-22.508-3.344-7.512-6.466-15.365-9.277-23.342a362.664,362.664,0,0,1-13.315-48.8,454.28,454.28,0,0,1-7.149-50.977c-1.407-16.579-2.071-34.2-1.973-52.372.092-16.785.839-34.614,2.22-52.992,2.359-31.383,6.634-65.639,13.069-104.726,1.42-8.62,2.9-17.488,4.21-25.312l0-.009c15.529-92.9,31.588-188.972,18.934-279.343H-9943.5c12.207,9.866,24.106,19.778,35.37,29.461,11.869,10.206,23.431,20.5,34.363,30.591,11.433,10.556,22.567,21.253,33.093,31.795,10.951,10.97,21.569,22.1,31.56,33.078,10.37,11.4,20.383,22.986,29.761,34.438,9.7,11.85,19.021,23.92,27.7,35.875,8.952,12.333,17.489,24.912,25.374,37.387,8.113,12.839,15.778,25.953,22.783,38.979v459.654a319.9,319.9,0,0,1-32.779,41.9,304.713,304.713,0,0,1-40.018,36.1c-8.433,6.341-17.3,12.343-26.362,17.839-8.865,5.377-18.158,10.418-27.619,14.981-9.257,4.464-18.926,8.593-28.736,12.271-9.595,3.6-19.591,6.864-29.71,9.71-9.887,2.78-20.162,5.234-30.541,7.295-10.134,2.012-20.642,3.7-31.232,5.028A517.654,517.654,0,0,1-10014.469-8006.89Z" transform="translate(11600.653 8887.117)" fill="#fff"/>
</svg>
