<svg xmlns="http://www.w3.org/2000/svg" width="817.83" height="642.103" viewBox="0 0 817.83 642.103">
  <path id="Union_49" data-name="Union 49" d="M-10234.554-811.673a25.775,25.775,0,0,1,25.77-25.772,25.779,25.779,0,0,1,25.777,25.772,25.778,25.778,0,0,1-25.777,25.775A25.774,25.774,0,0,1-10234.554-811.673Zm-104.33-101.781c-67.762-33.561-66.454-123.373-128.256-154.863-33.267-16.956-75.184-17.935-112.432-23.86-18.733-2.978-45.781-11.408-70.677-22.66-21.2-9.588-40.843-21.22-52.459-33.284-43.659-45.315-41.021-144.275,24.934-175.892,25.349-12.155,52.88-16.5,81.362-16.5,40.73,0,83.412,8.886,124.482,16.532,15.952,2.969,31.657,5.753,46.908,7.754a213.931,213.931,0,0,0,27.838,1.893c93.853,0,128.905-69.291,219.2-93.8a235.107,235.107,0,0,1,29.815-6.025,164.928,164.928,0,0,1,22.218-1.462c43.934,0,95.476,16.3,115.08,57.076,29.246,60.847-9.55,130.758,34.332,188.479,16.406,21.581,122.635,112.41,14.208,148.18-26.538,8.754-53.543,15.405-80.65,21.77h0c-12.533,2.942-25.09,5.823-37.631,8.822-38.168,9.127-75.292,20.036-109.557,39.427-35.018,19.809-72.714,47.081-112.092,47.081A81.306,81.306,0,0,1-10338.884-913.454Zm267.8-.569c0-4.067,4.285-7.365,9.574-7.365s9.569,3.3,9.569,7.365-4.286,7.365-9.569,7.365S-10071.082-909.959-10071.082-914.023Zm29.454-27.981c0-10.979,9.887-19.885,22.088-19.885s22.094,8.905,22.094,19.885-9.893,19.879-22.094,19.879S-10041.628-931.025-10041.628-942Zm-483.049-428.561c0-13.013,13.847-23.561,30.927-23.561s30.929,10.548,30.929,23.561S-10476.67-1347-10493.75-1347-10524.677-1357.55-10524.677-1370.566Zm73.636-45.652c0-6.505,5.934-11.783,13.256-11.783s13.25,5.278,13.25,11.783-5.934,11.783-13.25,11.783S-10451.041-1409.71-10451.041-1416.218Z" transform="translate(10732 1428.001)" fill="#f46baa" opacity="0.1"/>
</svg>
