<svg xmlns="http://www.w3.org/2000/svg" xmlns:xlink="http://www.w3.org/1999/xlink" width="3219.15" height="3042.883" viewBox="0 0 3219.15 3042.883">
  <defs>
    <clipPath id="clip-path">
      <path id="path40" d="M217.715,684.236C309.353,745.935,426.6,762.991,514,830.568c109.388,84.584,149.378,228.54,191.308,360.308s103.872,273.879,230.7,328.952c133.627,58.02,289.935-3.945,406.734-91.006s215.833-200.143,346.489-264.586c142.882-70.461,307.762-75.215,464.324-104.66s322.732-97.278,392.712-240.4c76.365-156.195,5.74-353.948-124.448-469.191s-305.942-163.566-477.473-191.95c-102.082-16.892-214.594-32.847-283.1-110.389-70.486-79.8-70.3-197.45-101.8-299.165-55.871-180.356-229.336-317.915-417.683-331.19s-379.417,98.566-460.031,269.3C637.544-219.834,621.781-108.283,547.3-36.444c-50.889,49.081-121.47,71.27-190.143,88.086S217.349,82.087,156.973,118.879C-37.773,237.561,57.92,576.666,217.715,684.235Z" transform="translate(-48.196 583.775)" fill="#fff"/>
    </clipPath>
  </defs>
  <g id="g36" transform="matrix(0.891, 0.454, -0.454, 0.891, 657.316, 498.267)">
    <g id="g38" transform="translate(48.196 -583.775)" clip-path="url(#clip-path)">
      <path id="path50" d="M217.715,684.236C309.353,745.935,426.6,762.991,514,830.568c109.388,84.584,149.378,228.54,191.308,360.308s103.872,273.879,230.7,328.952c133.627,58.02,289.935-3.945,406.734-91.006s215.833-200.143,346.489-264.586c142.882-70.461,307.762-75.215,464.324-104.66s322.732-97.278,392.712-240.4c76.365-156.195,5.74-353.948-124.448-469.191s-305.942-163.566-477.473-191.95c-102.082-16.892-214.594-32.847-283.1-110.389-70.486-79.8-70.3-197.45-101.8-299.165-55.871-180.356-229.336-317.915-417.683-331.19s-379.417,98.566-460.031,269.3C637.544-219.834,621.781-108.283,547.3-36.444c-50.889,49.081-121.47,71.27-190.143,88.086S217.349,82.087,156.973,118.879C-37.773,237.561,57.92,576.666,217.715,684.235" transform="translate(-48.196 583.775)" fill="#fff"/>
    </g>
  </g>
</svg>
