<svg xmlns="http://www.w3.org/2000/svg" xmlns:xlink="http://www.w3.org/1999/xlink" width="91.108" height="81.905" viewBox="0 0 91.108 81.905">
  <defs>
    <clipPath id="clip-path">
      <path id="path320" d="M61.628-238.966a25.577,25.577,0,0,1,.422-5.338c1.41-7.559,5.815-11.971,11.217-16.886,5.346-4.865,3.92-14.185,6.593-20.513a18.148,18.148,0,0,1,9.905-9.719c5.311-2.1,11.389-.643,15.912,2.5,5.14,3.566,8.26,11.314,13.974,13.832,8.68,3.825,13.241,2.943,20.61,6.929,6.876,3.719,10.089,10.735,11.8,17.754s.17,15.044-4.971,20.119c-8.205,8.1-19.346,4.946-29.542,6.068-6.181.68-12.069,2.9-17.981,4.822S87.5-215.811,81.3-216.287C69.414-217.2,61.911-227.776,61.628-238.966Z" transform="translate(-61.62 292.406)" fill="#cae097"/>
    </clipPath>
  </defs>
  <g id="Group_199" data-name="Group 199" transform="translate(-1315 -3368.594)">
    <g id="g316" transform="translate(1315 3374.299)">
      <g id="g318" transform="translate(0 0)" clip-path="url(#clip-path)">
        <path id="path330" d="M61.628-238.966a25.577,25.577,0,0,1,.422-5.338c1.41-7.559,5.815-11.971,11.217-16.886,5.346-4.865,3.92-14.185,6.593-20.513a18.148,18.148,0,0,1,9.905-9.719c5.311-2.1,11.389-.643,15.912,2.5,5.14,3.566,8.26,11.314,13.974,13.832,8.68,3.825,13.241,2.943,20.61,6.929,6.876,3.719,10.089,10.735,11.8,17.754s.17,15.044-4.971,20.119c-8.205,8.1-19.346,4.946-29.542,6.068-6.181.68-12.069,2.9-17.981,4.822S87.5-215.811,81.3-216.287c-11.884-.913-19.387-11.489-19.67-22.679" transform="translate(-61.62 292.406)" fill="#cae097"/>
      </g>
    </g>
    <g id="noun-best-practice-5513049" transform="translate(1250.337 3354.649)">
      <path id="Path_231" data-name="Path 231" d="M106.925,63.585l-7.09-7.09A2.436,2.436,0,0,0,99.128,56a1.161,1.161,0,0,0-.482-.1H85.656a1.716,1.716,0,0,0-1.714,1.714V84.059a1.717,1.717,0,0,0,1.714,1.714H105.81a1.716,1.716,0,0,0,1.714-1.714V64.775a1.167,1.167,0,0,0-.105-.484,2.441,2.441,0,0,0-.494-.706Zm-3.247.031H99.8V59.742ZM86.26,83.456V58.213H97.487v5.931a1.792,1.792,0,0,0,1.79,1.79h5.931V83.458H86.259Zm15.978-3.732a1.158,1.158,0,0,1-1.158,1.158H90.387a1.158,1.158,0,0,1,0-2.317h10.691a1.159,1.159,0,0,1,1.16,1.158Zm0-5.348a1.158,1.158,0,0,1-1.158,1.158H90.387a1.158,1.158,0,0,1,0-2.317h10.691a1.16,1.16,0,0,1,1.16,1.158Zm0-5.348a1.158,1.158,0,0,1-1.158,1.158H90.387a1.158,1.158,0,0,1,0-2.317h10.691a1.16,1.16,0,0,1,1.16,1.159Zm52.79-44.606-1.443-.555a11.388,11.388,0,0,0-.915-2.206l.627-1.414a1.16,1.16,0,0,0-.239-1.29l-2.3-2.3a1.159,1.159,0,0,0-1.29-.239l-1.413.629a11.38,11.38,0,0,0-2.206-.914l-.555-1.443a1.157,1.157,0,0,0-1.081-.742h-3.255a1.159,1.159,0,0,0-1.081.742l-.555,1.443a11.414,11.414,0,0,0-2.206.914l-1.414-.629a1.16,1.16,0,0,0-1.29.239l-2.3,2.3a1.159,1.159,0,0,0-.239,1.289l.627,1.414a11.348,11.348,0,0,0-.914,2.206l-1.443.555A1.159,1.159,0,0,0,129.4,25.5v3.255a1.159,1.159,0,0,0,.742,1.081l1.443.555A11.387,11.387,0,0,0,132.5,32.6l-.627,1.414a1.159,1.159,0,0,0,.239,1.289l2.3,2.3a1.16,1.16,0,0,0,1.29.239l1.414-.629a11.379,11.379,0,0,0,2.206.914l.555,1.443a1.159,1.159,0,0,0,1.081.742h3.255a1.159,1.159,0,0,0,1.081-.742l.555-1.443a11.419,11.419,0,0,0,2.206-.914l1.414.627a1.16,1.16,0,0,0,1.29-.239l2.3-2.3a1.158,1.158,0,0,0,.239-1.289l-.627-1.414a11.379,11.379,0,0,0,.914-2.206l1.443-.555a1.159,1.159,0,0,0,.742-1.081V25.5a1.159,1.159,0,0,0-.743-1.079Zm-1.575,3.541-1.25.482a1.158,1.158,0,0,0-.711.813,9.1,9.1,0,0,1-1.106,2.667A1.159,1.159,0,0,0,150.314,33l.545,1.226-1.177,1.177-1.226-.544a1.159,1.159,0,0,0-1.078.072,9.094,9.094,0,0,1-2.667,1.106,1.16,1.16,0,0,0-.814.711L143.416,38h-1.665l-.481-1.251a1.16,1.16,0,0,0-.813-.711,9.087,9.087,0,0,1-2.666-1.106,1.159,1.159,0,0,0-1.078-.072l-1.226.545-1.177-1.177L134.855,33a1.159,1.159,0,0,0-.072-1.078,9.094,9.094,0,0,1-1.106-2.667,1.16,1.16,0,0,0-.711-.814l-1.25-.481V26.3l1.25-.481a1.158,1.158,0,0,0,.711-.814,9.075,9.075,0,0,1,1.106-2.666,1.159,1.159,0,0,0,.072-1.078l-.545-1.226,1.177-1.177,1.226.545a1.159,1.159,0,0,0,1.078-.072,9.106,9.106,0,0,1,2.666-1.106,1.157,1.157,0,0,0,.813-.711l.482-1.251h1.665l.481,1.251a1.158,1.158,0,0,0,.813.711,9.075,9.075,0,0,1,2.666,1.106,1.159,1.159,0,0,0,1.078.072l1.226-.545,1.177,1.177-.544,1.225a1.159,1.159,0,0,0,.072,1.078,9.1,9.1,0,0,1,1.106,2.667,1.16,1.16,0,0,0,.711.814l1.25.481v1.664ZM142.585,20.3a6.836,6.836,0,1,0,6.836,6.836,6.844,6.844,0,0,0-6.836-6.836Zm0,11.355a4.519,4.519,0,1,1,4.519-4.519A4.524,4.524,0,0,1,142.585,31.65ZM90.992,52.471V27.131a1.158,1.158,0,0,1,1.158-1.158h30.622l-.575-.449a1.159,1.159,0,0,1,1.426-1.826l3.227,2.52a1.158,1.158,0,0,1,0,1.826l-3.227,2.52a1.159,1.159,0,1,1-1.427-1.826l.575-.449H93.309V52.472a1.159,1.159,0,1,1-2.317,0Zm52.751-8.12V72.587a1.158,1.158,0,0,1-1.158,1.158H114.86l.575.449a1.159,1.159,0,1,1-1.427,1.826l-3.227-2.52a1.159,1.159,0,0,1,0-1.827l3.227-2.52a1.159,1.159,0,0,1,1.426,1.826l-.574.449h26.567V44.351a1.159,1.159,0,0,1,2.317,0Zm-23.886,8.316a8.273,8.273,0,1,0-8.273-8.273A8.283,8.283,0,0,0,119.857,52.667Zm0-14.229a5.957,5.957,0,1,1-5.956,5.957A5.963,5.963,0,0,1,119.857,38.438Zm-2.268,9.168-2.027-2.027a1.159,1.159,0,0,1,1.639-1.639l1.247,1.247,4.107-3.727a1.158,1.158,0,1,1,1.557,1.716l-4.924,4.469a1.159,1.159,0,0,1-1.6-.038Zm-3.814,16.206a1.158,1.158,0,0,0,1,.576h.053a1.159,1.159,0,0,0,1-.669l3.185-6.841a3.368,3.368,0,0,1,.845-.175,6.591,6.591,0,0,1,1.515.378l.153.047,2.266,5.261a1.16,1.16,0,0,0,.978.7c.029,0,.057,0,.086,0a1.16,1.16,0,0,0,.984-.548l1.8-2.9,3.342.684a1.159,1.159,0,0,0,1.3-1.593l-2.523-5.858a3.671,3.671,0,0,0,2.139-3.8c-.033-.276-.064-.522-.091-.743a6.585,6.585,0,0,1-.11-1.558,6.625,6.625,0,0,1,.635-1.427c.1-.2.215-.419.34-.667a3.676,3.676,0,0,0-.77-4.368c-.2-.19-.385-.359-.548-.51a6.572,6.572,0,0,1-1.085-1.124,6.562,6.562,0,0,1-.43-1.5c-.05-.217-.1-.459-.169-.73a3.674,3.674,0,0,0-3.4-2.851c-.278-.016-.525-.027-.748-.038a6.584,6.584,0,0,1-1.553-.163,6.544,6.544,0,0,1-1.294-.874c-.177-.134-.375-.284-.6-.451a3.673,3.673,0,0,0-4.435,0c-.223.167-.42.316-.6.451a6.621,6.621,0,0,1-1.294.874,6.621,6.621,0,0,1-1.553.163l-.748.038a3.676,3.676,0,0,0-3.4,2.851c-.064.271-.119.513-.169.73a6.638,6.638,0,0,1-.43,1.5,6.6,6.6,0,0,1-1.085,1.123c-.163.151-.345.32-.548.511a3.674,3.674,0,0,0-.77,4.368c.125.248.238.469.34.667a6.6,6.6,0,0,1,.635,1.427,6.552,6.552,0,0,1-.11,1.558c-.027.221-.059.467-.091.743a3.674,3.674,0,0,0,2.217,3.841c.189.081.362.154.523.222l-3.111,6.682a1.158,1.158,0,0,0,1.25,1.63l3.361-.587Zm13.538-6.6a1.157,1.157,0,0,0-1.216.525l-1.055,1.7-.905-2.1a3.686,3.686,0,0,0,2.12-1.549c.153-.233.287-.441.408-.629a6.628,6.628,0,0,1,.917-1.264c.02-.016.043-.032.065-.049l1.625,3.771Zm-17.19-7.863c.032-.272.063-.514.09-.73a5.27,5.27,0,0,0-.764-4.33c-.1-.195-.211-.411-.334-.655A1.357,1.357,0,0,1,109.4,42c.2-.187.378-.353.538-.5a5.272,5.272,0,0,0,2.2-3.807c.049-.214.1-.45.166-.717a1.357,1.357,0,0,1,1.27-1.066l.735-.038a5.271,5.271,0,0,0,4.132-1.5c.174-.132.369-.279.587-.443a1.357,1.357,0,0,1,1.658,0c.219.164.413.311.587.443a5.275,5.275,0,0,0,4.132,1.5c.218.011.461.023.735.038a1.356,1.356,0,0,1,1.27,1.066c.062.266.117.5.166.717a5.275,5.275,0,0,0,2.2,3.808c.161.149.339.314.538.5a1.357,1.357,0,0,1,.288,1.633c-.123.244-.235.461-.334.655a5.272,5.272,0,0,0-.764,4.33c.027.217.057.458.09.73a1.358,1.358,0,0,1-.829,1.436c-.251.108-.476.2-.678.287a5.271,5.271,0,0,0-3.368,2.826c-.119.184-.25.388-.4.617a1.357,1.357,0,0,1-1.558.567c-.262-.079-.495-.151-.7-.215a5.27,5.27,0,0,0-4.4,0l-.7.215a1.358,1.358,0,0,1-1.558-.567c-.15-.229-.282-.433-.4-.616a5.272,5.272,0,0,0-3.368-2.826c-.2-.085-.426-.179-.677-.287a1.359,1.359,0,0,1-.831-1.438Zm2.417,5.031c.139.2.3.453.511.775.12.187.255.4.408.629a3.673,3.673,0,0,0,2.735,1.66l-1.529,3.284-1-1.728a1.158,1.158,0,0,0-1.2-.559l-1.969.344Z"/>
    </g>
  </g>
</svg>
