<svg xmlns="http://www.w3.org/2000/svg" xmlns:xlink="http://www.w3.org/1999/xlink" width="808.601" height="601.511" viewBox="0 0 808.601 601.511">
  <defs>
    <clipPath id="clip-path">
      <path id="path304" d="M517.132,282.175C480.4,278.7,445.89,263.459,412.807,247.117s-65.88-34.136-101.6-43.381c-40.461-10.468-82.9-9.514-124.348-14.906s-84.524-18.756-111.51-50.672C50.957,109.311,43.506,69.582,43.814,31.813,44.1-3.475,51.234-40.516,74.189-67.318c24.612-28.733,63.418-41.129,100.934-46.049s75.833-3.754,112.819-11.736c59.07-12.749,110.458-47.743,161.379-80.287S554.781-269.531,615.048-274s127.37,26.477,145.188,84.221c11.9,38.55.278,80.367,5.1,120.418C770.6-25.671,794.961,13.129,820,49.309c10.758,15.546,21.9,31.2,28.026,49.083s6.574,38.719-3.468,54.736c-10.839,17.292-31.711,25.8-51.935,28.536s-40.807.78-61.136,2.595c-40.336,3.613-82.721,23.383-108.863,54.932-27.253,32.886-61.543,47.148-105.492,42.984Z" transform="translate(-43.805 274.421)" fill="#f154af"/>
    </clipPath>
    <clipPath id="clip-path-2">
      <path id="path356" d="M135.073-200.955a31.606,31.606,0,0,1-31.6,31.6,31.6,31.6,0,0,1-31.6-31.6,31.6,31.6,0,0,1,31.6-31.606A31.6,31.6,0,0,1,135.073-200.955Z" transform="translate(-71.866 232.561)" fill="#fdecf6"/>
    </clipPath>
    <clipPath id="clip-path-3">
      <path id="path372" d="M208.3-69.743a15.8,15.8,0,0,1-15.8,15.8,15.8,15.8,0,0,1-15.8-15.8,15.805,15.805,0,0,1,15.8-15.8A15.8,15.8,0,0,1,208.3-69.743Z" transform="translate(-176.696 85.547)" fill="#fdecf6"/>
    </clipPath>
  </defs>
  <g id="Group_197" data-name="Group 197" transform="translate(-280.399 -233.264)">
    <g id="g300" transform="translate(280.399 233.264)" opacity="0.1">
      <g id="g302" transform="translate(0 0)" clip-path="url(#clip-path)">
        <path id="path314" d="M517.132,282.175C480.4,278.7,445.89,263.459,412.807,247.117s-65.88-34.136-101.6-43.381c-40.461-10.468-82.9-9.514-124.348-14.906s-84.524-18.756-111.51-50.672C50.957,109.311,43.506,69.582,43.814,31.813,44.1-3.475,51.234-40.516,74.189-67.318c24.612-28.733,63.418-41.129,100.934-46.049s75.833-3.754,112.819-11.736c59.07-12.749,110.458-47.743,161.379-80.287S554.781-269.531,615.048-274s127.37,26.477,145.188,84.221c11.9,38.55.278,80.367,5.1,120.418C770.6-25.671,794.961,13.129,820,49.309c10.758,15.546,21.9,31.2,28.026,49.083s6.574,38.719-3.468,54.736c-10.839,17.292-31.711,25.8-51.935,28.536s-40.807.78-61.136,2.595c-40.336,3.613-82.721,23.383-108.863,54.932-27.253,32.886-61.543,47.148-105.492,42.984" transform="translate(-43.805 274.421)" fill="#f154af"/>
      </g>
    </g>
    <g id="g352" transform="translate(343.07 299.573)">
      <g id="g354" transform="translate(0)" clip-path="url(#clip-path-2)">
        <path id="path366" d="M135.073-200.955a31.606,31.606,0,0,1-31.6,31.6,31.6,31.6,0,0,1-31.6-31.6,31.6,31.6,0,0,1,31.6-31.606,31.6,31.6,0,0,1,31.6,31.606" transform="translate(-71.866 232.561)" fill="#fdecf6"/>
      </g>
    </g>
    <g id="g368" transform="translate(681.381 803.172)">
      <g id="g370" transform="translate(0)" clip-path="url(#clip-path-3)">
        <path id="path382" d="M208.3-69.743a15.8,15.8,0,0,1-15.8,15.8,15.8,15.8,0,0,1-15.8-15.8,15.805,15.805,0,0,1,15.8-15.8,15.8,15.8,0,0,1,15.8,15.8" transform="translate(-176.696 85.547)" fill="#fdecf6"/>
      </g>
    </g>
  </g>
</svg>
