<svg xmlns="http://www.w3.org/2000/svg" width="2320.797" height="1918.812" viewBox="0 0 2320.797 1918.812">
  <path id="path298" d="M1398.818,1623.98c-105.437-11.971-204.476-64.442-299.428-120.712s-189.084-117.537-291.61-149.35c-116.135-36.062-237.948-32.77-356.9-51.34s-242.6-64.569-320.049-174.451c-70-99.328-91.385-236.1-90.5-366.159.829-121.5,21.289-249.036,87.181-341.321,70.639-98.936,182.016-141.59,289.7-158.542s217.644-12.91,323.8-40.4C910.548,177.8,1058.039,57.3,1204.191-54.747s302.684-220.827,475.659-236.2S2045.42-199.79,2096.563-.972c34.145,132.722.8,276.7,14.642,414.61,15.1,150.412,85.021,284,156.89,408.583,30.877,53.509,62.874,107.388,80.437,168.98s18.868,133.313-9.954,188.459c-31.119,59.54-91.014,88.832-149.062,98.254-58.047,9.4-117.122,2.679-175.469,8.949-115.771,12.413-237.42,80.5-312.453,189.12-78.22,113.22-176.636,162.327-302.776,148" transform="translate(-40.304 292.406)" fill="#fff"/>
</svg>
