<svg xmlns="http://www.w3.org/2000/svg" width="368.478" height="328.386" viewBox="0 0 368.478 328.386">
  <path id="Path_61" data-name="Path 61" d="M406.339,341.008c-19.785,3.658-40.05,4.345-59.876,7.863-26.795,4.754-52.455,12.669-66.9,37.614-14.081,24.313-16.671,56.482-4.15,81.891,9.08,18.426,23.4,35.957,40.792,46.9a258.656,258.656,0,0,0,72.183,31.256c27.7,7.245,57.326,10.156,81.729,25.14,12.788,7.851,23.522,18.689,36.24,26.65,27.156,17,63.753,18.994,91.377,2.764s43.856-50.932,36.2-82.043c-4.813-19.576-17.784-36.1-25.012-54.92a98.935,98.935,0,0,1-5.291-50.913c2.828-17.565,10.259-34.153,12.091-51.9,1.533-14.86-3.77-33.8-12.01-46.316-16.776-25.478-47.395-34.565-76.241-30.029-21.791,3.428-43.264,14.385-61.452,26.531-8.645,5.776-15.312,13.444-24.886,18.323a122.841,122.841,0,0,1-31.284,10.511C408.681,340.563,407.511,340.789,406.339,341.008Z" transform="translate(-267.349 -283.839)" fill="#317feb"/>
</svg>
