<svg xmlns="http://www.w3.org/2000/svg" width="89.998" height="75.269" viewBox="0 0 89.998 75.269">
  <g id="Group_649" data-name="Group 649" transform="translate(1078.037 -5212.736)">
    <path id="path14" d="M129.541-446.975a37.043,37.043,0,0,0,19.979-1.452c16.893-6.006,30.79,1.777,34.283,6.674,4.054,5.69,4.724,13.177,2.847,20.02s-6.1,13.09-11.161,18.525c-3.957,4.246-8.581,8.145-14.115,10.359-5.407,2.163-11.331,2.591-17.121,2.883-7.446.376-15.02.566-22.112-1.176-5.783-1.419-11.724-4.928-12.228-10.464-.429-4.72,3.277-9.365,2.761-14.073-.724-6.593-9.013-9.859-11.752-15.895-3.2-7.038.86-14.792,6.407-16.454,5.782-1.733,14.948-.481,22.212,1.054" transform="translate(-1175.688 5672.965)" fill="#fcd6d6" opacity="0.3"/>
    <path id="path444" d="M117.042-530.742c-4.322,7.412-18.271,9.666-23.129,13.467-4.445,3.481-6.812,11.53-6.573,17.944s5.112,12.8,11.508,13.331c2.784.232,5.568-.59,8.355-.4,8.919.609,13.888,10.613,21.73,14.9,9.039,4.945,20.558,1.447,28.92-4.569,5.318-3.826,10.1-8.9,11.8-15.23s-.5-13.993-6.27-17.1c-5.2-2.8-13.111-2.39-15.134-7.935-1.416-3.877,1.345-7.93,1.965-12.01.971-6.393-3.893-12.757-10.057-14.712s-11.813-2.292-16.355,2.312c-2.12,2.149-5.24,7.4-6.76,10" transform="translate(-1165.361 5757.153)" fill="#f57677" opacity="0.3"/>
  </g>
</svg>
