<svg xmlns="http://www.w3.org/2000/svg" width="82.256" height="78.017" viewBox="0 0 82.256 78.017">
  <path id="Union_71" data-name="Union 71" d="M63.538,78.017a18.788,18.788,0,0,1-7.066-1.377v0c-.064-.027-.133-.057-.2-.08a38.246,38.246,0,0,0-25.7-.945c-.045.015-.091.03-.141.05A16.867,16.867,0,0,1,8.436,57.823a38.24,38.24,0,0,0,.219-4.083,38.215,38.215,0,0,0-6.49-21.311A12.762,12.762,0,0,1,15.1,12.77l.065.011A38.2,38.2,0,0,0,47.28,3.945l0,0A15.921,15.921,0,0,1,73.339,19.294a38.174,38.174,0,0,0,5.7,29.494,18.725,18.725,0,0,1-15.5,29.228ZM1.232,67.465a1.98,1.98,0,1,1,1.981,1.981A1.981,1.981,0,0,1,1.232,67.465Zm73.1-54.345A3.961,3.961,0,1,1,78.3,17.08,3.961,3.961,0,0,1,74.334,13.119Z" transform="translate(0 0)" fill="#ed175f" opacity="0.1"/>
</svg>
