<svg xmlns="http://www.w3.org/2000/svg" width="573.985" height="521.243" viewBox="0 0 573.985 521.243">
  <path id="path444" d="M293.125-449.718c-29.932,51.327-126.531,66.936-160.17,93.262-30.785,24.1-47.177,79.844-45.516,124.261s35.4,88.609,79.7,92.317c19.277,1.606,38.56-4.087,57.858-2.773,61.767,4.217,96.173,73.495,150.479,103.2,62.6,34.241,142.365,10.024,200.277-31.641,36.831-26.494,69.976-61.645,81.709-105.472s-3.484-96.9-43.42-118.432c-35.985-19.4-90.792-16.553-104.8-54.949-9.808-26.848,9.313-54.916,13.61-83.173,6.724-44.275-26.956-88.345-69.644-101.88S371.4-550.869,339.942-518.985c-14.679,14.879-36.287,51.211-46.817,69.267" transform="translate(-87.324 544.417)" fill="#f57677" opacity="0.3"/>
</svg>
