<svg xmlns="http://www.w3.org/2000/svg" width="82.885" height="75.269" viewBox="0 0 82.885 75.269">
  <path id="path444" d="M117.042-530.742c-4.322,7.412-18.271,9.666-23.129,13.467-4.445,3.481-6.812,11.53-6.573,17.944s5.112,12.8,11.508,13.331c2.784.232,5.568-.59,8.355-.4,8.919.609,13.888,10.613,21.73,14.9,9.039,4.945,20.558,1.447,28.92-4.569,5.318-3.826,10.1-8.9,11.8-15.23s-.5-13.993-6.27-17.1c-5.2-2.8-13.111-2.39-15.134-7.935-1.416-3.877,1.345-7.93,1.965-12.01.971-6.393-3.893-12.757-10.057-14.712s-11.813-2.292-16.355,2.312c-2.12,2.149-5.24,7.4-6.76,10" transform="translate(-87.324 544.417)" fill="#f57677" opacity="0.3"/>
</svg>
