<svg xmlns="http://www.w3.org/2000/svg" width="94.96" height="79.53" viewBox="0 0 94.96 79.53">
  <path id="Union_72" data-name="Union 72" d="M50.795,76.912c-2.667-1.414-4.755-3.684-7-5.7A45.719,45.719,0,0,0,27.464,61.8C19.337,59.155,9.8,58.407,4.25,51.913-.2,46.714-.685,38.927,1.7,32.513a22.271,22.271,0,0,1,4.723-7.688c4.47-4.656,11.079-6.834,17.531-6.975a59.208,59.208,0,0,1,9.169.893c5.161.747,10.624,1.494,15.121.171a12.04,12.04,0,0,0,4.208-2.153,29.852,29.852,0,0,0,6.825-7.817c2.566-4.256,7-12.514,12.935-7.239,3.675,3.267,4.8,8.436,6.388,13.088A53.231,53.231,0,0,0,85.74,28.636c3.506,4.874,8.047,9.685,8.2,15.687a8.719,8.719,0,0,1-.749,3.947c-1.565,3.311-5.356,4.8-8.282,7C79.821,59.1,77.216,65.32,73.157,70.228a23.273,23.273,0,0,1-10.091,7.349,17.011,17.011,0,0,1-5.536.94A14.354,14.354,0,0,1,50.795,76.912ZM2.326,59.459a2.641,2.641,0,0,1-.774-5.025c2.208-.917,4.608,1.863,3.236,3.885A2.722,2.722,0,0,1,2.563,59.47C2.484,59.47,2.405,59.466,2.326,59.459ZM32.709,7.209c1.872-1.869,3.483.747,1.677,2.272a1.5,1.5,0,0,1-.958.4C32.331,9.882,31.678,8.237,32.709,7.209Zm5.926,2.045a2.016,2.016,0,0,1-.611-.624c-1.292-1.957.333-5.467,2.882-5.148,3.063.384,2.256,4.027.42,5.318a3.388,3.388,0,0,1-1.838.684A1.6,1.6,0,0,1,38.635,9.254Z" transform="translate(0.515 0.513)" fill="#5dabc4" stroke="rgba(0,0,0,0)" stroke-miterlimit="10" stroke-width="1" opacity="0.1"/>
</svg>
