<svg xmlns="http://www.w3.org/2000/svg" xmlns:xlink="http://www.w3.org/1999/xlink" width="80.613" height="80.438" viewBox="0 0 80.613 80.438">
  <defs>
    <clipPath id="clip-path">
      <path id="path216" d="M372.317-508.5a17.993,17.993,0,0,0,4.308,2.039c4.535,1.457,9.386,1.787,13.87,3.4a25.625,25.625,0,0,1,7.688,4.4c2.415,2,4.1,4.68,6.664,6.513,13.838,9.906,26.767-6.141,30.9-17.936,2.539-7.253,3.831-14.868,6.191-22.176,2.262-7.006,4.432-15.067,1.734-22.264-5.515-14.716-23.276-15.983-36.491-14.491-13.288,1.5-27.708,5.347-33.375,18.862-1.515,3.612-2.214,7.5-3.294,11.269-1.654,5.767-6.529,10.086-6.183,16.282a17.769,17.769,0,0,0,7.992,14.1Z" transform="translate(-364.308 569.501)" fill="#cae097"/>
    </clipPath>
  </defs>
  <g id="Group_200" data-name="Group 200" transform="translate(-1085.133 -3048.68)">
    <g id="g212" transform="translate(1085.133 3048.68)">
      <g id="g214" transform="translate(0 0)" clip-path="url(#clip-path)">
        <path id="path226" d="M372.317-508.5a17.993,17.993,0,0,0,4.308,2.039c4.535,1.457,9.386,1.787,13.87,3.4a25.625,25.625,0,0,1,7.688,4.4c2.415,2,4.1,4.68,6.664,6.513,13.838,9.906,26.767-6.141,30.9-17.936,2.539-7.253,3.831-14.868,6.191-22.176,2.262-7.006,4.432-15.067,1.734-22.264-5.515-14.716-23.276-15.983-36.491-14.491-13.288,1.5-27.708,5.347-33.375,18.862-1.515,3.612-2.214,7.5-3.294,11.269-1.654,5.767-6.529,10.086-6.183,16.282a17.769,17.769,0,0,0,7.992,14.1" transform="translate(-364.308 569.501)" fill="#cae097"/>
      </g>
    </g>
    <text id="IN" transform="translate(1102.745 3091.68)" font-size="48" font-family="ClashDisplay-Semibold, Clash Display" font-weight="600"><tspan x="0" y="0">IN</tspan></text>
  </g>
</svg>
