<svg xmlns="http://www.w3.org/2000/svg" width="61.094" height="61.643" viewBox="0 0 61.094 61.643">
  <g id="noun-interaction-4502391" transform="translate(-106.09 -33.895)">
    <path id="Path_239" data-name="Path 239" d="M180.746,49.512h0c-3.571,0-5.464-5.122-5.642-7.734-.3-4.455,1.426-7.883,5.856-7.883s6.16,3.417,5.856,7.883c-.184,2.7-2.153,7.733-6.068,7.734Zm.212-13.426c-3.106,0-3.88,2.444-3.67,5.542.136,2,1.654,5.691,3.456,5.691h0c2.261,0,3.75-3.76,3.882-5.691.21-3.1-.57-5.542-3.67-5.542Z" transform="translate(-60.34)"/>
    <path id="Path_240" data-name="Path 240" d="M133.694,185.416H107.531a1.44,1.44,0,0,1-1.439-1.439,12.274,12.274,0,0,1,12.26-12.26h4.521a12.274,12.274,0,0,1,12.26,12.26,1.44,1.44,0,0,1-1.439,1.439Zm-25.383-2.192h24.6a10.082,10.082,0,0,0-10.041-9.316h-4.521a10.082,10.082,0,0,0-10.041,9.316Z" transform="translate(-0.002 -120.561)"/>
    <path id="Path_241" data-name="Path 241" d="M353.35,91.917H330.337a3.29,3.29,0,0,1-3.288-3.288V84.8l-3.935-2.88h0a1.1,1.1,0,0,1-.02-1.753l3.955-3.037V73.288A3.29,3.29,0,0,1,330.337,70H353.35a3.291,3.291,0,0,1,3.288,3.288V88.63a3.291,3.291,0,0,1-3.288,3.288Zm-27.76-10.9,3.2,2.345h0a1.1,1.1,0,0,1,.448.884V88.63a1.1,1.1,0,0,0,1.1,1.1H353.35a1.1,1.1,0,0,0,1.1-1.1V73.288a1.1,1.1,0,0,0-1.1-1.1H330.337a1.1,1.1,0,0,0-1.1,1.1v4.383a1.1,1.1,0,0,1-.429.869Z" transform="translate(-189.453 -31.584)"/>
    <path id="Path_242" data-name="Path 242" d="M436.98,294.512c-3.916,0-5.884-5.036-6.068-7.734-.3-4.464,1.436-7.883,5.856-7.883s6.16,3.426,5.856,7.883c-.178,2.612-2.071,7.733-5.642,7.734Zm-.212-13.426c-3.1,0-3.88,2.438-3.67,5.542.132,1.931,1.622,5.691,3.882,5.691h0c1.8,0,3.32-3.692,3.456-5.691.21-3.1-.565-5.542-3.67-5.542Z" transform="translate(-284.113 -214.317)"/>
    <path id="Path_243" data-name="Path 243" d="M389.624,430.416H363.461a1.439,1.439,0,0,1-1.439-1.439,12.274,12.274,0,0,1,12.26-12.26H378.8a12.275,12.275,0,0,1,12.26,12.26,1.44,1.44,0,0,1-1.439,1.439Zm-25.383-2.192h24.6a10.082,10.082,0,0,0-10.041-9.316h-4.521a10.082,10.082,0,0,0-10.041,9.316Z" transform="translate(-223.88 -334.878)"/>
    <path id="Path_244" data-name="Path 244" d="M132.39,336.916H109.377a3.29,3.29,0,0,1-3.288-3.288V318.287A3.29,3.29,0,0,1,109.377,315H132.39a3.29,3.29,0,0,1,3.288,3.288v3.843l3.955,3.037h0a1.1,1.1,0,0,1-.02,1.753l-3.935,2.88v3.827a3.29,3.29,0,0,1-3.288,3.288Zm-23.013-19.725a1.1,1.1,0,0,0-1.1,1.1v15.342a1.1,1.1,0,0,0,1.1,1.1H132.39a1.1,1.1,0,0,0,1.1-1.1v-4.383a1.1,1.1,0,0,1,.448-.884l3.2-2.345-3.223-2.476a1.1,1.1,0,0,1-.429-.869v-4.383a1.1,1.1,0,0,0-1.1-1.1Z" transform="translate(0 -245.899)"/>
    <path id="Path_245" data-name="Path 245" d="M204.759,356.842H192.429a1.1,1.1,0,1,1,0-2.192h12.331a1.1,1.1,0,1,1,0,2.192Z" transform="translate(-74.568 -280.584)"/>
    <path id="Path_246" data-name="Path 246" d="M144.9,356.842h-2.674a1.1,1.1,0,1,1,0-2.192H144.9a1.1,1.1,0,0,1,0,2.192Z" transform="translate(-30.654 -280.584)"/>
    <path id="Path_247" data-name="Path 247" d="M159.725,395.942H141.1a1.1,1.1,0,1,1,0-2.192h18.629a1.1,1.1,0,1,1,0,2.192Z" transform="translate(-29.663 -314.787)"/>
    <path id="Path_248" data-name="Path 248" d="M274.538,435.042h-2.192a1.1,1.1,0,0,1,0-2.192h2.192a1.1,1.1,0,0,1,0,2.192Z" transform="translate(-144.476 -348.99)"/>
    <path id="Path_249" data-name="Path 249" d="M153.691,435.042H141.1a1.1,1.1,0,1,1,0-2.192h12.6a1.1,1.1,0,1,1,0,2.192Z" transform="translate(-29.663 -348.99)"/>
    <path id="Path_250" data-name="Path 250" d="M445.613,112.734a4.371,4.371,0,0,1,2.08-4.255c1.095-.723,1.379-1.117,1.265-1.756-.326-1.83-4.011-1.538-3.527.224h0a1.1,1.1,0,1,1-2.113.58c-1.32-4.805,6.956-5.915,7.8-1.188.4,2.244-1.366,3.409-2.215,3.969a2.185,2.185,0,0,0-1.1,2.248,1.1,1.1,0,0,1-2.184.178Z" transform="translate(-294.87 -60.719)"/>
    <path id="Path_251" data-name="Path 251" d="M465.3,195.346a1.1,1.1,0,1,1-.321-.775A1.1,1.1,0,0,1,465.3,195.346Z" transform="translate(-312.308 -140.272)"/>
  </g>
</svg>
