<svg xmlns="http://www.w3.org/2000/svg" xmlns:xlink="http://www.w3.org/1999/xlink" width="98.981" height="68.22" viewBox="0 0 98.981 68.22">
  <defs>
    <clipPath id="clip-path">
      <path id="path304" d="M101.746-206.288c-4.5-.426-8.721-2.291-12.771-4.292s-8.064-4.179-12.437-5.31c-4.953-1.281-10.148-1.165-15.222-1.825s-10.347-2.3-13.65-6.2c-2.986-3.531-3.9-8.394-3.86-13.018.035-4.32.908-8.854,3.718-12.135,3.013-3.517,7.763-5.035,12.355-5.637s9.283-.459,13.81-1.437c7.231-1.561,13.521-5.844,19.755-9.828s12.909-7.852,20.287-8.4,15.591,3.241,17.773,10.31c1.456,4.719.034,9.838.624,14.74.644,5.348,3.626,10.1,6.691,14.526a25.254,25.254,0,0,1,3.431,6.008,7.927,7.927,0,0,1-.425,6.7c-1.327,2.117-3.882,3.158-6.357,3.493s-5,.1-7.484.318a20.081,20.081,0,0,0-13.326,6.724,13.968,13.968,0,0,1-12.913,5.262Z" transform="translate(-43.805 274.421)" fill="#cae097"/>
    </clipPath>
  </defs>
  <g id="g300" transform="translate(0 0)">
    <g id="g302" transform="translate(0 0)" clip-path="url(#clip-path)">
      <path id="path314" d="M101.746-206.288c-4.5-.426-8.721-2.291-12.771-4.292s-8.064-4.179-12.437-5.31c-4.953-1.281-10.148-1.165-15.222-1.825s-10.347-2.3-13.65-6.2c-2.986-3.531-3.9-8.394-3.86-13.018.035-4.32.908-8.854,3.718-12.135,3.013-3.517,7.763-5.035,12.355-5.637s9.283-.459,13.81-1.437c7.231-1.561,13.521-5.844,19.755-9.828s12.909-7.852,20.287-8.4,15.591,3.241,17.773,10.31c1.456,4.719.034,9.838.624,14.74.644,5.348,3.626,10.1,6.691,14.526a25.254,25.254,0,0,1,3.431,6.008,7.927,7.927,0,0,1-.425,6.7c-1.327,2.117-3.882,3.158-6.357,3.493s-5,.1-7.484.318a20.081,20.081,0,0,0-13.326,6.724,13.968,13.968,0,0,1-12.913,5.262" transform="translate(-43.805 274.421)" fill="#cae097"/>
    </g>
  </g>
</svg>
