<svg xmlns="http://www.w3.org/2000/svg" xmlns:xlink="http://www.w3.org/1999/xlink" width="98.532" height="82.821" viewBox="0 0 98.532 82.821">
  <defs>
    <clipPath id="clip-path">
      <path id="path40" d="M54.8-534.383c3.57,2.4,8.137,3.068,11.541,5.7,4.261,3.295,5.819,8.9,7.452,14.035s4.046,10.668,8.986,12.813c5.205,2.26,11.294-.154,15.843-3.545s8.407-7.8,13.5-10.306c5.566-2.745,11.988-2.93,18.086-4.077s12.571-3.789,15.3-9.364c2.975-6.084.224-13.787-4.847-18.276s-11.917-6.371-18.6-7.477c-3.976-.658-8.359-1.279-11.027-4.3-2.746-3.109-2.738-7.691-3.965-11.653a18.86,18.86,0,0,0-16.27-12.9,18.86,18.86,0,0,0-17.919,10.49c-1.721,3.645-2.335,7.99-5.236,10.788-1.982,1.912-4.732,2.776-7.406,3.431s-5.446,1.186-7.8,2.619c-7.586,4.623-3.858,17.832,2.366,22.022Z" transform="translate(-48.196 583.775)" fill="#cae097"/>
    </clipPath>
  </defs>
  <g id="g38" transform="translate(0 0)" clip-path="url(#clip-path)">
    <path id="path50" d="M54.8-534.383c3.57,2.4,8.137,3.068,11.541,5.7,4.261,3.295,5.819,8.9,7.452,14.035s4.046,10.668,8.986,12.813c5.205,2.26,11.294-.154,15.843-3.545s8.407-7.8,13.5-10.306c5.566-2.745,11.988-2.93,18.086-4.077s12.571-3.789,15.3-9.364c2.975-6.084.224-13.787-4.847-18.276s-11.917-6.371-18.6-7.477c-3.976-.658-8.359-1.279-11.027-4.3-2.746-3.109-2.738-7.691-3.965-11.653a18.86,18.86,0,0,0-16.27-12.9,18.86,18.86,0,0,0-17.919,10.49c-1.721,3.645-2.335,7.99-5.236,10.788-1.982,1.912-4.732,2.776-7.406,3.431s-5.446,1.186-7.8,2.619c-7.586,4.623-3.858,17.832,2.366,22.022" transform="translate(-48.196 583.775)" fill="#cae097"/>
  </g>
</svg>
