<svg xmlns="http://www.w3.org/2000/svg" width="71.198" height="71.176" viewBox="0 0 71.198 71.176">
  <path id="Path_235" data-name="Path 235" d="M167.17,95.658,164.176,90.1h1.914a1.227,1.227,0,0,0,.932-2.025L152.479,70.892a1.225,1.225,0,0,0-.932-.43h-14.2a5.966,5.966,0,0,0,.393-1.227h1.939a1.227,1.227,0,0,0,1.129-.724q.368-.846.7-1.73H150.1a1.227,1.227,0,0,0,1.227-.957c0-.123,2.454-11.769-7.67-18.323-1.767-11.671-10.665-20.47-11.045-20.863a1.227,1.227,0,0,0-1.718,0c-.417.4-9.315,9.2-11.045,20.863-10.211,6.553-7.756,18.2-7.756,18.323a1.227,1.227,0,0,0,1.227.957h8.591q.331.883.7,1.73a1.226,1.226,0,0,0,1.129.724h1.976a5.965,5.965,0,0,0,.393,1.227h-14.2a1.225,1.225,0,0,0-.932.43L96.431,88.073a1.227,1.227,0,0,0,.932,2.025h1.914l-2.994,5.559a1.192,1.192,0,0,0,1.08,1.8h68.725a1.225,1.225,0,0,0,1.08-1.8ZM144,50.826a15.316,15.316,0,0,1,5.093,13.5h-6.8A49.772,49.772,0,0,0,144,50.826ZM131.727,29.289a44.363,44.363,0,0,1,6.738,9.929,13.562,13.562,0,0,1-13.5,0A44.369,44.369,0,0,1,131.727,29.289ZM114.362,64.326a15.3,15.3,0,0,1,5.093-13.5,49.167,49.167,0,0,0,1.706,13.5Zm10.223,2.454a41.586,41.586,0,0,1-2.675-15.341A26.7,26.7,0,0,1,124,41.462a15.954,15.954,0,0,0,15.463,0,26.7,26.7,0,0,1,2.086,9.977A41.593,41.593,0,0,1,138.87,66.78Zm10.6,2.454a3.682,3.682,0,0,1-6.922,0Zm-22.716,3.682h15.574a6.025,6.025,0,0,0,7.363,0h15.574l12.456,14.727H100.017ZM99.415,95.007l2.651-4.909h59.325l2.651,4.909Z" transform="translate(-96.119 -26.287)"/>
</svg>
