<svg xmlns="http://www.w3.org/2000/svg" xmlns:xlink="http://www.w3.org/1999/xlink" width="81.482" height="80.568" viewBox="0 0 81.482 80.568">
  <defs>
    <clipPath id="clip-path">
      <path id="path232" d="M391.521-545.075c.767,7.559-2.282,14.754-4.616,21.772-1.08,3.248-1.733,6.578-2.644,9.835a9.559,9.559,0,0,0,1.823,9.1c2.457,2.873,6.2,4.34,9.927,5a30.6,30.6,0,0,0,12.955-.522c4.458-1.152,7.484-3.4,10.945-6.347,5.232-4.448,10.357-10.061,17.429-11.336,8.1-1.46,16.816,2.768,23.312-4.163,4.251-4.534,5.51-11.842,4.127-17.762a19.371,19.371,0,0,0-6.944-10.833c-3.908-3.128-8.9-3.895-13.413-5.8a36.087,36.087,0,0,1-8.791-5.513c-2.7-2.225-4.938-5.039-7.643-7.22a49.541,49.541,0,0,0-18.462-9.218c-6.181-1.559-15.519-2.846-20.513,2.15C380.994-567.917,390.6-554.129,391.521-545.075Z" transform="translate(-383.833 579.482)" fill="#cae097"/>
    </clipPath>
  </defs>
  <g id="Group_201" data-name="Group 201" transform="translate(-684.499 -3058.282)">
    <g id="g228" transform="translate(684.499 3058.282)">
      <g id="g230" transform="translate(0 0)" clip-path="url(#clip-path)">
        <path id="path242" d="M391.521-545.075c.767,7.559-2.282,14.754-4.616,21.772-1.08,3.248-1.733,6.578-2.644,9.835a9.559,9.559,0,0,0,1.823,9.1c2.457,2.873,6.2,4.34,9.927,5a30.6,30.6,0,0,0,12.955-.522c4.458-1.152,7.484-3.4,10.945-6.347,5.232-4.448,10.357-10.061,17.429-11.336,8.1-1.46,16.816,2.768,23.312-4.163,4.251-4.534,5.51-11.842,4.127-17.762a19.371,19.371,0,0,0-6.944-10.833c-3.908-3.128-8.9-3.895-13.413-5.8a36.087,36.087,0,0,1-8.791-5.513c-2.7-2.225-4.938-5.039-7.643-7.22a49.541,49.541,0,0,0-18.462-9.218c-6.181-1.559-15.519-2.846-20.513,2.15-8.019,8.021,1.59,21.809,2.509,30.862" transform="translate(-383.833 579.482)" fill="#cae097"/>
      </g>
    </g>
    <g id="noun-email-5804439" transform="translate(690.564 3061.225)">
      <g id="Group_659" data-name="Group 659" transform="translate(2 3.523)">
        <g id="Group_658" data-name="Group 658">
          <path id="Path_277" data-name="Path 277" d="M351.194,45.417a2.046,2.046,0,0,1,4.092,0v4.092a6.137,6.137,0,0,1-6.138,6.138h-45.01A6.137,6.137,0,0,1,298,49.509V26.977a6.137,6.137,0,0,1,2.4-4.871L323,4.789a6.134,6.134,0,0,1,7.484.014L352.9,22.11a6.14,6.14,0,0,1,2.386,4.857V37.234a2.046,2.046,0,0,1-4.092,0V26.967a2.047,2.047,0,0,0-.8-1.618L327.987,8.042a2.048,2.048,0,0,0-2.5,0l-22.6,17.315a2.05,2.05,0,0,0-.8,1.624V49.509a2.047,2.047,0,0,0,2.046,2.046h45.01a2.047,2.047,0,0,0,2.046-2.046Z" transform="translate(-298 -3.523)" fill-rule="evenodd"/>
          <g id="Group_657" data-name="Group 657" transform="translate(8.181 23.482)">
            <path id="Path_278" data-name="Path 278" d="M339.692-22.066a2.046,2.046,0,0,1,2.87.358,2.047,2.047,0,0,1-.357,2.871L326.457-6.57a6.133,6.133,0,0,1-7.527.011l-15.99-12.376a2.047,2.047,0,0,1-.365-2.871,2.049,2.049,0,0,1,2.87-.365l15.99,12.376a2.043,2.043,0,0,0,2.509,0Z" transform="translate(-302.146 22.598)" fill-rule="evenodd"/>
          </g>
        </g>
      </g>
    </g>
  </g>
</svg>
