<svg xmlns="http://www.w3.org/2000/svg" width="426.211" height="394.418" viewBox="0 0 426.211 394.418">
  <path id="Path_30" data-name="Path 30" d="M191.054,136.719c-.894,18.482,5.134,38.92-4.8,54.529-11.228,17.644-28.9,4.358-45.749,5.03-19.08.766-38.683,5.732-54.623,16.543-17.442,11.826-26.061,35.568-30.244,55.764-9.158,44.222,2.315,92.437,23.957,131.4,28.421,51.174,87.77,79.943,142.079,51.167,7.021-3.721,13.642-8.212,20.923-11.392,27.776-12.13,60.305-.161,89.252-2.2,34.545-2.438,66.872-2.389,97.7-20.979,43.046-25.95,65.35-88.7,35.365-131.626-13.294-19.033-30.622-35.77-38.94-57.447-11.7-30.476-3.629-65.681-14.625-96.419-11.438-31.966-42.814-54.2-76.144-60.661C293.091,62.26,210.188,75.25,193.5,122.983A48.5,48.5,0,0,0,191.054,136.719Z" transform="translate(-52.466 -68.151)" fill="#9fcc3b" opacity="0.2"/>
</svg>
