<svg xmlns="http://www.w3.org/2000/svg" width="59.999" height="60" viewBox="0 0 59.999 60">
  <g id="noun_product_refinement_4245255" data-name="noun_product refinement_4245255" transform="translate(0.001)">
    <path id="Path_161" data-name="Path 161" d="M.338,17.475A4.7,4.7,0,0,0,3.46,20.284l.54.151v17.2a3,3,0,0,0,2.2,2.884l6.8,1.86V56a4,4,0,0,0,4,4H43a4,4,0,0,0,4-4V42.384l6.808-1.861A3,3,0,0,0,56,37.64V20.435l.54-.151a4.736,4.736,0,0,0,2.784-6.995l-3.466-5.8-.009.006a.993.993,0,0,0-.576-.455L31.081.15a3.977,3.977,0,0,0-2.164,0L4.727,7.04a.993.993,0,0,0-.576.455l-.009-.006-3.465,5.8a4.7,4.7,0,0,0-.339,4.186ZM6.728,38.6A1,1,0,0,1,6,37.64V21l14.99,4.2a4.744,4.744,0,0,0,5.336-2.123L29,18.613V28H17a4,4,0,0,0-4,4v8.31ZM45,56a2,2,0,0,1-2,2H17a2,2,0,0,1-2-2V32a2,2,0,0,1,2-2H43a2,2,0,0,1,2,2Zm9-18.36a1,1,0,0,1-.724.955L47,40.31V32a4,4,0,0,0-4-4H31V18.613l2.674,4.458a4.744,4.744,0,0,0,4.065,2.3A4.665,4.665,0,0,0,39.01,25.2L54,21Zm3.8-20.9A2.713,2.713,0,0,1,56,18.358L38.47,23.269a2.741,2.741,0,0,1-3.082-1.227l-3.857-6.431,23-6.44L57.6,14.316a2.715,2.715,0,0,1,.195,2.419ZM29.462,2.074a2,2,0,0,1,1.074,0L51.32,7.994,30,13.963,8.68,7.994ZM2.393,14.314,5.466,9.171l23,6.44-3.857,6.431a2.741,2.741,0,0,1-3.082,1.227L4,18.358a2.736,2.736,0,0,1-1.606-4.044Z"/>
    <path id="Path_162" data-name="Path 162" d="M42,35H25.816a2.982,2.982,0,0,0-5.632,0H18a1,1,0,0,0,0,2h2.184a2.982,2.982,0,0,0,5.632,0H42a1,1,0,0,0,0-2ZM23,37a1,1,0,1,1,1-1A1,1,0,0,1,23,37Z"/>
    <path id="Path_163" data-name="Path 163" d="M42,51H29.816a2.982,2.982,0,0,0-5.632,0H18a1,1,0,0,0,0,2h6.184a2.982,2.982,0,0,0,5.632,0H42a1,1,0,0,0,0-2ZM27,53a1,1,0,1,1,1-1A1,1,0,0,1,27,53Z"/>
    <path id="Path_164" data-name="Path 164" d="M42,43H37.816a2.982,2.982,0,0,0-5.632,0H18a1,1,0,0,0,0,2H32.184a2.982,2.982,0,0,0,5.632,0H42a1,1,0,0,0,0-2Zm-7,2a1,1,0,1,1,1-1A1,1,0,0,1,35,45Z"/>
  </g>
</svg>
