<svg xmlns="http://www.w3.org/2000/svg" width="58.553" height="62.484" viewBox="0 0 58.553 62.484">
  <g id="noun-portfolio-edit-3195694" transform="translate(-140.089 -55.995)">
    <path id="Path_232" data-name="Path 232" d="M198.642,69.2a5.15,5.15,0,0,0-5.145-5.144H180.2V61.139A5.151,5.151,0,0,0,175.055,56H164.167a5.15,5.15,0,0,0-5.144,5.144v2.913h-13.79a5.15,5.15,0,0,0-5.145,5.144v29a5.15,5.15,0,0,0,5.145,5.144H193.5a5.15,5.15,0,0,0,5.145-5.144Zm-37.014-8.056a2.543,2.543,0,0,1,2.54-2.54h10.887a2.543,2.543,0,0,1,2.54,2.54v2.913H161.628Zm-16.393,5.516H193.5a2.544,2.544,0,0,1,2.541,2.54v6.946H142.693V69.2a2.544,2.544,0,0,1,2.541-2.54Zm48.264,34.08H145.234a2.544,2.544,0,0,1-2.541-2.54V78.745h6.33v3.181a1.3,1.3,0,1,0,2.6,0V78.745H187.1v3.181a1.3,1.3,0,0,0,2.6,0V78.745h6.33V98.194a2.543,2.543,0,0,1-2.54,2.54Z" transform="translate(0 0)"/>
    <path id="Path_233" data-name="Path 233" d="M202.453,420.219a1.3,1.3,0,0,0-.672-1.14l-9.019-4.983c-.031-.017-.065-.024-.1-.039s-.045-.018-.069-.027a1.3,1.3,0,0,0-.463-.1h-35.9l-.013,0h-4.572a6.28,6.28,0,0,0,0,12.559h4.576c.022,0,.041-.011.063-.013l35.844.01h0a1.292,1.292,0,0,0,.455-.093c.028-.011.055-.02.082-.033s.062-.02.091-.036l9.019-4.973a1.3,1.3,0,0,0,.673-1.14Zm-44.926,2.438V421.51h16.891l16.409.008v2.373l-33.3-.009Zm33.3-6.119v2.376l-16.407-.008h-16.89l0-2.368Zm-42.848,3.673a3.675,3.675,0,0,1,3.67-3.67h3.274V420.2s0,.006,0,.009,0,.006,0,.009v3.676h-3.274a3.681,3.681,0,0,1-3.671-3.682Zm45.452,2.779v-2.76s0-.008,0-.013,0-.008,0-.013V417.44l5.027,2.777Z" transform="translate(-4.549 -308.017)"/>
  </g>
</svg>
