<svg xmlns="http://www.w3.org/2000/svg" width="60" height="60.002" viewBox="0 0 60 60.002">
  <g id="noun_Prototyping_1909763" transform="translate(-2 -2)">
    <g id="Group_92" data-name="Group 92">
      <path id="Path_157" data-name="Path 157" d="M59,38.311V11a4,4,0,0,0-3-3.858V6a4,4,0,0,0-4-4H6A4,4,0,0,0,2,6V49a4,4,0,0,0,4,4H7a4,4,0,0,0,4,4H44.95A8.992,8.992,0,0,0,62,53V45a8.971,8.971,0,0,0-3-6.689ZM57,11v4H9V11a2,2,0,0,1,2-2H55A2,2,0,0,1,57,11ZM6,51a2,2,0,0,1-2-2V6A2,2,0,0,1,6,4H52a2,2,0,0,1,2,2V7H11a4,4,0,0,0-4,4V51Zm5,4a2,2,0,0,1-2-2V17H57V36.95A8.98,8.98,0,0,0,44,45v8a8.971,8.971,0,0,0,.232,2Zm49-2a7,7,0,1,1-14,0V51.368a3.21,3.21,0,0,1,1.7,2.239,5.237,5.237,0,0,0,2,3.165l.158.119a5.271,5.271,0,0,0,6.292,0l.158-.118A5.237,5.237,0,0,0,58.3,53.607h0A3.21,3.21,0,0,1,60,51.368Zm0-3.769a5.2,5.2,0,0,0-3.662,3.983A3.244,3.244,0,0,1,55.1,55.173l-.157.118a3.261,3.261,0,0,1-3.891,0l-.158-.119a3.244,3.244,0,0,1-1.235-1.958A5.2,5.2,0,0,0,46,49.231V45a7,7,0,0,1,14,0Z"/>
      <path id="Path_158" data-name="Path 158" d="M53,41a3,3,0,0,0-3,3v3a3,3,0,0,0,6,0V44a3,3,0,0,0-3-3Zm1,6a1,1,0,0,1-2,0V44a1,1,0,0,1,2,0Z"/>
      <path id="Path_159" data-name="Path 159" d="M13,38H33a1,1,0,0,0,1-1V21a1,1,0,0,0-1-1H13a1,1,0,0,0-1,1V37A1,1,0,0,0,13,38Zm1-16H32V36H14Z"/>
      <path id="Path_160" data-name="Path 160" d="M29.371,28.071l-10-4A1,1,0,0,0,18,25v8a1,1,0,0,0,1.371.929l10-4a1,1,0,0,0,0-1.858ZM20,31.523V26.477L26.308,29Z"/>
      <rect id="Rectangle_25" data-name="Rectangle 25" width="17" height="2" transform="translate(37 24)"/>
      <rect id="Rectangle_26" data-name="Rectangle 26" width="17" height="2" transform="translate(37 28)"/>
      <rect id="Rectangle_27" data-name="Rectangle 27" width="12" height="2" transform="translate(37 32)"/>
      <rect id="Rectangle_28" data-name="Rectangle 28" width="10" height="2" transform="translate(44 20)"/>
      <rect id="Rectangle_29" data-name="Rectangle 29" width="2" height="2" transform="translate(40 20)"/>
      <rect id="Rectangle_30" data-name="Rectangle 30" width="29" height="2" transform="translate(12 46)"/>
      <rect id="Rectangle_31" data-name="Rectangle 31" width="29" height="2" transform="translate(12 50)"/>
      <rect id="Rectangle_32" data-name="Rectangle 32" width="22" height="2" transform="translate(19 42)"/>
      <rect id="Rectangle_33" data-name="Rectangle 33" width="2" height="2" transform="translate(15 42)"/>
      <rect id="Rectangle_34" data-name="Rectangle 34" width="2" height="2" transform="translate(11 11)"/>
      <rect id="Rectangle_35" data-name="Rectangle 35" width="2" height="2" transform="translate(15 11)"/>
      <rect id="Rectangle_36" data-name="Rectangle 36" width="2" height="2" transform="translate(19 11)"/>
    </g>
  </g>
</svg>
