<svg xmlns="http://www.w3.org/2000/svg" width="94.211" height="69.74" viewBox="0 0 94.211 69.74">
  <path id="Path_201" data-name="Path 201" d="M143.959,326.964a34.013,34.013,0,0,0-1.16-18.2c-3.12-9.122-13.07-16.957-22.081-16.646a24.105,24.105,0,0,0-13.621,4.9c-2.571,1.941-4.815,4.4-7.523,6.1-12.864,8.073-33.855-4.108-44.417,8.774-4.972,6.064-5.843,16.99-3.213,24.018a34.335,34.335,0,0,0,7.334,11.278,23.138,23.138,0,0,0,6.9,5.366c4.063,1.892,8.721,1.874,13.1,2.846,7.819,1.736,14.926,6.458,23.123,6.445a24.4,24.4,0,0,0,18.5-8.409c2.581-3.084,4.5-7.013,7.895-9.327,1.741-1.185,3.683-1.308,5.427-2.5a23.641,23.641,0,0,0,4.972-4.6A24.386,24.386,0,0,0,143.959,326.964Z" transform="translate(-50.493 -292.107)" fill="#9fcc3b" opacity="0.5"/>
</svg>
