<svg xmlns="http://www.w3.org/2000/svg" width="12.272" height="12.272" viewBox="0 0 12.272 12.272">
  <path id="Path_234" data-name="Path 234" d="M314.841,183.75h-4.909a3.681,3.681,0,0,0-3.682,3.682v4.909a3.681,3.681,0,0,0,3.682,3.682h4.909a3.681,3.681,0,0,0,3.682-3.682v-4.909a3.681,3.681,0,0,0-3.682-3.682Zm1.227,8.591a1.227,1.227,0,0,1-1.227,1.227h-4.909a1.227,1.227,0,0,1-1.227-1.227v-4.909a1.227,1.227,0,0,1,1.227-1.227h4.909a1.227,1.227,0,0,1,1.227,1.227Z" transform="translate(-306.25 -183.75)"/>
</svg>
