<svg xmlns="http://www.w3.org/2000/svg" width="98.698" height="61.444" viewBox="0 0 98.698 61.444">
  <path id="Path_200" data-name="Path 200" d="M310.619,301.87c-4.987-1.6-9.628-4.227-14.725-5.424a27.307,27.307,0,0,0-33.524,25.315c-.431,9.277,4.065,18.425,10.994,24.608s16.075,9.558,25.312,10.511,18.593-.391,27.569-2.774a46.587,46.587,0,0,0,18.282-9.412c9.179-7.591,17.65-17.439,16.386-30.127-.555-5.576-4.32-10.94-10.088-11.879-4.43-.72-8.893.439-13.3.78-4.2.324-8.421.6-12.641.526A49.72,49.72,0,0,1,310.619,301.87Z" transform="translate(-262.342 -295.746)" fill="#9fcc3b" opacity="0.5"/>
</svg>
