<svg xmlns="http://www.w3.org/2000/svg" width="94.96" height="79.53" viewBox="0 0 94.96 79.53">
  <path id="Union_72" data-name="Union 72" d="M50.8,76.912c-2.667-1.414-4.755-3.684-7-5.7A45.762,45.762,0,0,0,27.464,61.8C19.337,59.155,9.8,58.407,4.25,51.914-.2,46.715-.685,38.927,1.7,32.514a22.276,22.276,0,0,1,4.724-7.688c4.469-4.655,11.077-6.833,17.53-6.975a59.02,59.02,0,0,1,9.168.892c5.161.748,10.625,1.495,15.122.171a12.035,12.035,0,0,0,4.208-2.152,29.885,29.885,0,0,0,6.824-7.817c2.566-4.256,7-12.514,12.934-7.239,3.676,3.266,4.8,8.435,6.389,13.088A53.3,53.3,0,0,0,85.74,28.636c3.507,4.875,8.048,9.685,8.2,15.687a8.721,8.721,0,0,1-.75,3.948c-1.564,3.31-5.356,4.795-8.282,7C79.82,59.1,77.216,65.32,73.157,70.228a23.257,23.257,0,0,1-10.091,7.349,17.008,17.008,0,0,1-5.536.94A14.353,14.353,0,0,1,50.8,76.912ZM2.326,59.459a2.64,2.64,0,0,1-.773-5.025C3.76,53.517,6.16,56.3,4.789,58.318A2.722,2.722,0,0,1,2.562,59.47C2.483,59.47,2.4,59.466,2.326,59.459ZM32.709,7.209c1.873-1.87,3.484.746,1.676,2.271a1.5,1.5,0,0,1-.958.4C32.331,9.883,31.678,8.237,32.709,7.209Zm5.927,2.044a2.02,2.02,0,0,1-.612-.623c-1.292-1.958.334-5.466,2.883-5.148,3.062.385,2.256,4.027.42,5.318a3.389,3.389,0,0,1-1.838.683A1.6,1.6,0,0,1,38.636,9.253Z" transform="translate(0.515 0.513)" fill="#5dabc4" stroke="rgba(0,0,0,0)" stroke-miterlimit="10" stroke-width="1" opacity="0.1"/>
</svg>
