<svg xmlns="http://www.w3.org/2000/svg" width="811.914" height="678.685" viewBox="0 0 811.914 678.685">
  <path id="Union_52" data-name="Union 52" d="M-12535.56-764.124c-23.021-12.208-41.044-31.8-60.438-49.2a394.63,394.63,0,0,0-140.941-81.245c-70.151-22.822-152.429-29.28-200.376-85.337-38.386-44.876-42.6-112.091-22.047-167.448,9.1-24.5,22.662-47.5,40.767-66.356,38.582-40.187,95.626-58.986,151.321-60.208,23.441-.511,50.766,3.6,79.144,7.705,44.55,6.448,91.7,12.9,130.519,1.479a103.929,103.929,0,0,0,36.32-18.587,257.67,257.67,0,0,0,58.91-67.473c22.146-36.734,60.423-108.016,111.648-62.485,31.72,28.2,41.413,72.813,55.142,112.971a459.451,459.451,0,0,0,61.671,119.484c30.264,42.07,69.46,83.6,70.783,135.4.3,11.657-1.482,23.523-6.467,34.069-13.5,28.579-46.234,41.39-71.49,60.4-43.925,33.059-66.405,86.773-101.441,129.137-23.181,28.029-52.733,51.538-87.105,63.436a146.83,146.83,0,0,1-47.783,8.111C-12497.639-750.274-12517.724-754.664-12535.56-764.124Zm-418.359-150.646c-22.672-2.085-27.855-34.577-6.682-43.377,19.063-7.917,39.773,16.081,27.934,33.531a23.5,23.5,0,0,1-19.21,9.939C-12952.558-914.677-12953.24-914.708-12953.919-914.77Zm262.25-451.008c16.162-16.134,30.064,6.444,14.472,19.61-2.9,2.441-5.721,3.471-8.27,3.471C-12694.931-1342.7-12700.563-1356.9-12691.669-1365.778Zm51.153,17.655a17.4,17.4,0,0,1-5.274-5.382c-11.149-16.9,2.87-47.186,24.875-44.433,26.435,3.317,19.476,34.756,3.622,45.9-4.628,3.251-10.41,5.9-15.867,5.9A13.821,13.821,0,0,1-12640.516-1348.123Z" transform="translate(12974.517 1428.458)" fill="#5dabc4" stroke="rgba(0,0,0,0)" stroke-miterlimit="10" stroke-width="1" opacity="0.1"/>
</svg>
