<svg xmlns="http://www.w3.org/2000/svg" width="2524.022" height="2526.019" viewBox="0 0 2524.022 2526.019">
  <path id="Union_35" data-name="Union 35" d="M1.143,1544.03a891.574,891.574,0,0,1,.849-104.585c18.481-280.172,157.088-487.59,68.775-857.253-15.99-66.948-24.264-129.216-25.6-186.226C283.028,282.574,491.438,236.211,671.824,236.211c537.029,0,826.278,410.681,909.049,686.529-40.033,25-80.969,49.408-120.312,75.383-119.063,78.6-289.842,154.651-441.94,244.127-79.2,46.6-153.34,96.823-212.475,152.942-192.414,182.612-280.5,447.66-498.266,472.977a189.25,189.25,0,0,1-22.138,1.285C130.336,1869.433,8.071,1679.483,1.143,1544.03ZM671.824,236.211c-180.385,0-388.8,46.363-626.653,159.755C39.436,148.29,164.793,0,357.49,0c4.375,0,8.813.088,13.257.241C603.952,8.31,783.13,275.622,1106.863,275.622a611.161,611.161,0,0,0,72.661-4.4c84.006-10.085,158.427-14.692,224.338-14.692,370.2,0,469.469,145.72,460.18,287.321-12.863,196.041-142.616,291.147-283.169,378.893C1498.1,646.892,1208.853,236.211,671.824,236.211Z" transform="translate(877.656) rotate(28)" fill="#fff"/>
</svg>
