<svg xmlns="http://www.w3.org/2000/svg" xmlns:xlink="http://www.w3.org/1999/xlink" width="91.108" height="76.438" viewBox="0 0 91.108 76.438">
  <defs>
    <clipPath id="clip-path">
      <path id="path320" d="M61.628-238.966a25.577,25.577,0,0,1,.422-5.338c1.41-7.559,5.815-11.971,11.217-16.886,5.346-4.865,3.92-14.185,6.593-20.513a18.148,18.148,0,0,1,9.905-9.719c5.311-2.1,11.389-.643,15.912,2.5,5.14,3.566,8.26,11.314,13.974,13.832,8.68,3.825,13.241,2.943,20.61,6.929,6.876,3.719,10.089,10.735,11.8,17.754s.17,15.044-4.971,20.119c-8.205,8.1-19.346,4.946-29.542,6.068-6.181.68-12.069,2.9-17.981,4.822S87.5-215.811,81.3-216.287C69.414-217.2,61.911-227.776,61.628-238.966Z" transform="translate(-61.62 292.406)" fill="#cae097"/>
    </clipPath>
  </defs>
  <g id="Group_199" data-name="Group 199" transform="translate(-1315 -3374.062)">
    <g id="g316" transform="translate(1315 3374.299)">
      <g id="g318" transform="translate(0 0)" clip-path="url(#clip-path)">
        <path id="path330" d="M61.628-238.966a25.577,25.577,0,0,1,.422-5.338c1.41-7.559,5.815-11.971,11.217-16.886,5.346-4.865,3.92-14.185,6.593-20.513a18.148,18.148,0,0,1,9.905-9.719c5.311-2.1,11.389-.643,15.912,2.5,5.14,3.566,8.26,11.314,13.974,13.832,8.68,3.825,13.241,2.943,20.61,6.929,6.876,3.719,10.089,10.735,11.8,17.754s.17,15.044-4.971,20.119c-8.205,8.1-19.346,4.946-29.542,6.068-6.181.68-12.069,2.9-17.981,4.822S87.5-215.811,81.3-216.287c-11.884-.913-19.387-11.489-19.67-22.679" transform="translate(-61.62 292.406)" fill="#cae097"/>
      </g>
    </g>
    <text id="US" transform="translate(1325.108 3417.062)" font-size="48" font-family="ClashDisplay-Semibold, Clash Display" font-weight="600"><tspan x="0" y="0">US</tspan></text>
  </g>
</svg>
