<svg xmlns="http://www.w3.org/2000/svg" xmlns:xlink="http://www.w3.org/1999/xlink" width="98.981" height="68.22" viewBox="0 0 98.981 68.22">
  <defs>
    <clipPath id="clip-path">
      <path id="path304" d="M101.746-206.288c-4.5-.426-8.721-2.291-12.771-4.292s-8.064-4.179-12.437-5.31c-4.953-1.281-10.148-1.165-15.222-1.825s-10.347-2.3-13.65-6.2c-2.986-3.531-3.9-8.394-3.86-13.018.035-4.32.908-8.854,3.718-12.135,3.013-3.517,7.763-5.035,12.355-5.637s9.283-.459,13.81-1.437c7.231-1.561,13.521-5.844,19.755-9.828s12.909-7.852,20.287-8.4,15.591,3.241,17.773,10.31c1.456,4.719.034,9.838.624,14.74.644,5.348,3.626,10.1,6.691,14.526a25.254,25.254,0,0,1,3.431,6.008,7.927,7.927,0,0,1-.425,6.7c-1.327,2.117-3.882,3.158-6.357,3.493s-5,.1-7.484.318a20.081,20.081,0,0,0-13.326,6.724,13.968,13.968,0,0,1-12.913,5.262Z" transform="translate(-43.805 274.421)" fill="#cae097"/>
    </clipPath>
  </defs>
  <g id="Group_202" data-name="Group 202" transform="translate(-921.749 -3358.131)">
    <g id="g300" transform="translate(921.749 3358.131)">
      <g id="g302" transform="translate(0 0)" clip-path="url(#clip-path)">
        <path id="path314" d="M101.746-206.288c-4.5-.426-8.721-2.291-12.771-4.292s-8.064-4.179-12.437-5.31c-4.953-1.281-10.148-1.165-15.222-1.825s-10.347-2.3-13.65-6.2c-2.986-3.531-3.9-8.394-3.86-13.018.035-4.32.908-8.854,3.718-12.135,3.013-3.517,7.763-5.035,12.355-5.637s9.283-.459,13.81-1.437c7.231-1.561,13.521-5.844,19.755-9.828s12.909-7.852,20.287-8.4,15.591,3.241,17.773,10.31c1.456,4.719.034,9.838.624,14.74.644,5.348,3.626,10.1,6.691,14.526a25.254,25.254,0,0,1,3.431,6.008,7.927,7.927,0,0,1-.425,6.7c-1.327,2.117-3.882,3.158-6.357,3.493s-5,.1-7.484.318a20.081,20.081,0,0,0-13.326,6.724,13.968,13.968,0,0,1-12.913,5.262" transform="translate(-43.805 274.421)" fill="#cae097"/>
      </g>
    </g>
    <g id="noun-strategy-844717" transform="translate(833.999 3312.595)">
      <path id="Path_225" data-name="Path 225" d="M151.95,118.853l-.782,3.128a1.478,1.478,0,1,0,2.868.717l1.478-5.912a1.5,1.5,0,0,0-.773-1.681l-5.912-2.956a1.478,1.478,0,1,0-1.322,2.644l2.963,1.481c-11.16,4.931-17.964,13.751-19.63,25.378a5.916,5.916,0,1,0,2.966.216c1.608-10.564,7.889-18.565,18.144-23.015Zm-17.082,28.61a2.956,2.956,0,1,1-2.956-2.956A2.959,2.959,0,0,1,134.868,147.463Z" transform="translate(0 -50.083)"/>
      <path id="Path_226" data-name="Path 226" d="M305.389,392.429a1.477,1.477,0,0,0-2.09,0l-3.389,3.389-3.388-3.388a1.478,1.478,0,0,0-2.09,2.09l3.388,3.388-3.388,3.388a1.478,1.478,0,0,0,2.09,2.091L299.91,400l3.388,3.388a1.478,1.478,0,1,0,2.091-2.089L302,397.908l3.388-3.388a1.478,1.478,0,0,0,0-2.091Z" transform="translate(-150.264 -300.527)"/>
      <path id="Path_227" data-name="Path 227" d="M473.389,224.429a1.477,1.477,0,0,0-2.09,0l-3.389,3.389-3.388-3.388a1.478,1.478,0,0,0-2.09,2.09l3.388,3.388-3.388,3.388a1.478,1.478,0,0,0,2.09,2.091L467.91,232l3.388,3.388a1.478,1.478,0,1,0,2.091-2.089L470,229.908l3.388-3.388a1.478,1.478,0,0,0,0-2.091Z" transform="translate(-300.529 -150.262)"/>
      <path id="Path_228" data-name="Path 228" d="M126.435,67.39a1.479,1.479,0,0,0,2.091,0L131.914,64l3.388,3.388a1.478,1.478,0,1,0,2.091-2.089L134,61.911l3.388-3.388a1.478,1.478,0,1,0-2.09-2.09l-3.388,3.388-3.388-3.388a1.478,1.478,0,0,0-2.09,2.09l3.388,3.388L126.436,65.3a1.478,1.478,0,0,0,0,2.091Z" transform="translate(-0.002)"/>
      <path id="Path_229" data-name="Path 229" d="M460.254,56.436l-1.741,1.741-4.6,4.6-3.389-3.389a1.478,1.478,0,0,0-2.09,2.09l4.434,4.434a1.478,1.478,0,0,0,2.091,0l7.389-7.389a1.478,1.478,0,0,0-2.091-2.091Z" transform="translate(-288.007 -0.004)"/>
    </g>
  </g>
</svg>
