<svg xmlns="http://www.w3.org/2000/svg" xmlns:xlink="http://www.w3.org/1999/xlink" width="81.482" height="80.568" viewBox="0 0 81.482 80.568">
  <defs>
    <clipPath id="clip-path">
      <path id="path232" d="M391.521-545.075c.767,7.559-2.282,14.754-4.616,21.772-1.08,3.248-1.733,6.578-2.644,9.835a9.559,9.559,0,0,0,1.823,9.1c2.457,2.873,6.2,4.34,9.927,5a30.6,30.6,0,0,0,12.955-.522c4.458-1.152,7.484-3.4,10.945-6.347,5.232-4.448,10.357-10.061,17.429-11.336,8.1-1.46,16.816,2.768,23.312-4.163,4.251-4.534,5.51-11.842,4.127-17.762a19.371,19.371,0,0,0-6.944-10.833c-3.908-3.128-8.9-3.895-13.413-5.8a36.087,36.087,0,0,1-8.791-5.513c-2.7-2.225-4.938-5.039-7.643-7.22a49.541,49.541,0,0,0-18.462-9.218c-6.181-1.559-15.519-2.846-20.513,2.15C380.994-567.917,390.6-554.129,391.521-545.075Z" transform="translate(-383.833 579.482)" fill="#cae097"/>
    </clipPath>
  </defs>
  <g id="Group_201" data-name="Group 201" transform="translate(-684.499 -3058.282)">
    <g id="g228" transform="translate(684.499 3058.282)">
      <g id="g230" transform="translate(0 0)" clip-path="url(#clip-path)">
        <path id="path242" d="M391.521-545.075c.767,7.559-2.282,14.754-4.616,21.772-1.08,3.248-1.733,6.578-2.644,9.835a9.559,9.559,0,0,0,1.823,9.1c2.457,2.873,6.2,4.34,9.927,5a30.6,30.6,0,0,0,12.955-.522c4.458-1.152,7.484-3.4,10.945-6.347,5.232-4.448,10.357-10.061,17.429-11.336,8.1-1.46,16.816,2.768,23.312-4.163,4.251-4.534,5.51-11.842,4.127-17.762a19.371,19.371,0,0,0-6.944-10.833c-3.908-3.128-8.9-3.895-13.413-5.8a36.087,36.087,0,0,1-8.791-5.513c-2.7-2.225-4.938-5.039-7.643-7.22a49.541,49.541,0,0,0-18.462-9.218c-6.181-1.559-15.519-2.846-20.513,2.15-8.019,8.021,1.59,21.809,2.509,30.862" transform="translate(-383.833 579.482)" fill="#cae097"/>
      </g>
    </g>
    <g id="noun_Prototyping_1909763" transform="translate(693.24 3076.847)">
      <g id="Group_92" data-name="Group 92">
        <path id="Path_157" data-name="Path 157" d="M59,38.311V11a4,4,0,0,0-3-3.858V6a4,4,0,0,0-4-4H6A4,4,0,0,0,2,6V49a4,4,0,0,0,4,4H7a4,4,0,0,0,4,4H44.95A8.992,8.992,0,0,0,62,53V45a8.971,8.971,0,0,0-3-6.689ZM57,11v4H9V11a2,2,0,0,1,2-2H55A2,2,0,0,1,57,11ZM6,51a2,2,0,0,1-2-2V6A2,2,0,0,1,6,4H52a2,2,0,0,1,2,2V7H11a4,4,0,0,0-4,4V51Zm5,4a2,2,0,0,1-2-2V17H57V36.95A8.98,8.98,0,0,0,44,45v8a8.971,8.971,0,0,0,.232,2Zm49-2a7,7,0,1,1-14,0V51.368a3.21,3.21,0,0,1,1.7,2.239,5.237,5.237,0,0,0,2,3.165l.158.119a5.271,5.271,0,0,0,6.292,0l.158-.118A5.237,5.237,0,0,0,58.3,53.607h0A3.21,3.21,0,0,1,60,51.368Zm0-3.769a5.2,5.2,0,0,0-3.662,3.983A3.244,3.244,0,0,1,55.1,55.173l-.157.118a3.261,3.261,0,0,1-3.891,0l-.158-.119a3.244,3.244,0,0,1-1.235-1.958A5.2,5.2,0,0,0,46,49.231V45a7,7,0,0,1,14,0Z"/>
        <path id="Path_158" data-name="Path 158" d="M53,41a3,3,0,0,0-3,3v3a3,3,0,0,0,6,0V44a3,3,0,0,0-3-3Zm1,6a1,1,0,0,1-2,0V44a1,1,0,0,1,2,0Z"/>
        <path id="Path_159" data-name="Path 159" d="M13,38H33a1,1,0,0,0,1-1V21a1,1,0,0,0-1-1H13a1,1,0,0,0-1,1V37A1,1,0,0,0,13,38Zm1-16H32V36H14Z"/>
        <path id="Path_160" data-name="Path 160" d="M29.371,28.071l-10-4A1,1,0,0,0,18,25v8a1,1,0,0,0,1.371.929l10-4a1,1,0,0,0,0-1.858ZM20,31.523V26.477L26.308,29Z"/>
        <rect id="Rectangle_25" data-name="Rectangle 25" width="17" height="2" transform="translate(37 24)"/>
        <rect id="Rectangle_26" data-name="Rectangle 26" width="17" height="2" transform="translate(37 28)"/>
        <rect id="Rectangle_27" data-name="Rectangle 27" width="12" height="2" transform="translate(37 32)"/>
        <rect id="Rectangle_28" data-name="Rectangle 28" width="10" height="2" transform="translate(44 20)"/>
        <rect id="Rectangle_29" data-name="Rectangle 29" width="2" height="2" transform="translate(40 20)"/>
        <rect id="Rectangle_30" data-name="Rectangle 30" width="29" height="2" transform="translate(12 46)"/>
        <rect id="Rectangle_31" data-name="Rectangle 31" width="29" height="2" transform="translate(12 50)"/>
        <rect id="Rectangle_32" data-name="Rectangle 32" width="22" height="2" transform="translate(19 42)"/>
        <rect id="Rectangle_33" data-name="Rectangle 33" width="2" height="2" transform="translate(15 42)"/>
        <rect id="Rectangle_34" data-name="Rectangle 34" width="2" height="2" transform="translate(11 11)"/>
        <rect id="Rectangle_35" data-name="Rectangle 35" width="2" height="2" transform="translate(15 11)"/>
        <rect id="Rectangle_36" data-name="Rectangle 36" width="2" height="2" transform="translate(19 11)"/>
      </g>
    </g>
  </g>
</svg>
