<svg xmlns="http://www.w3.org/2000/svg" width="92.172" height="57.382" viewBox="0 0 92.172 57.382">
  <path id="Path_202" data-name="Path 202" d="M307.427,301.465c-4.657-1.49-8.991-3.947-13.751-5.066a25.5,25.5,0,0,0-31.308,23.641c-.4,8.664,3.8,17.207,10.267,22.981s15.012,8.926,23.639,9.816,17.364-.365,25.746-2.591a43.507,43.507,0,0,0,17.074-8.79c8.572-7.089,16.483-16.286,15.3-28.135-.518-5.207-4.034-10.217-9.421-11.093-4.137-.672-8.3.41-12.421.728-3.927.3-7.864.563-11.8.491A46.432,46.432,0,0,1,307.427,301.465Z" transform="translate(-262.342 -295.746)" fill="#9fcc3b" opacity="0.5"/>
</svg>
