<svg xmlns="http://www.w3.org/2000/svg" width="84.242" height="69.74" viewBox="0 0 84.242 69.74">
  <path id="Path_198" data-name="Path 198" d="M57.382,346.683A21.782,21.782,0,0,0,69,361.547a28.169,28.169,0,0,0,19.916,1.734c8.092-2.186,15.172-7.5,23.42-8.991,5.744-1.041,12.016-.235,17.11-3.086,2.863-1.6,5.019-4.2,6.984-6.825a25.13,25.13,0,0,0,3.533-5.884c2.236-5.8.385-12.544-3.262-17.573a43.349,43.349,0,0,0-10.472-9.668c-3.317-2.332-4.981-5.806-8.071-8.49a34.682,34.682,0,0,0-23.773-8.155c-11.3.382-19.73,6.056-27.7,13.488-2.95,2.753-4.491,7.537-5.817,11.232-2.872,8.006-4.95,16.534-3.907,24.975Q57.118,345.515,57.382,346.683Z" transform="translate(-56.694 -294.588)" fill="#9fcc3b" opacity="0.5"/>
</svg>
