<svg xmlns="http://www.w3.org/2000/svg" width="669.627" height="576.574" viewBox="0 0 669.627 576.574">
  <g id="Group_196" data-name="Group 196" transform="translate(-387.373 -221.021)">
    <path id="Union_30" data-name="Union 30" d="M.373,476.207A259.893,259.893,0,0,1,.65,443.951C6.681,357.541,51.917,293.569,23.1,179.559a261.781,261.781,0,0,1-8.353-57.436C92.368,87.151,160.385,72.852,219.255,72.852c175.264,0,269.662,126.661,296.675,211.738-13.065,7.712-26.425,15.238-39.265,23.249-38.857,24.24-94.592,47.7-144.231,75.293-25.848,14.371-50.044,29.862-69.343,47.17-62.8,56.321-91.543,138.066-162.613,145.875a65.3,65.3,0,0,1-7.225.4C42.536,576.567,2.634,517.983.373,476.207ZM219.255,72.852c-58.87,0-126.887,14.3-204.513,49.271C12.87,45.735,53.781,0,116.67,0c1.428,0,2.876.027,4.326.074C197.1,2.563,255.581,85.007,361.233,85.007a210.918,210.918,0,0,0,23.713-1.358,652.7,652.7,0,0,1,73.214-4.531c120.817,0,153.215,44.943,150.183,88.615-4.2,60.462-46.544,89.8-92.414,116.857C488.917,199.513,394.519,72.852,219.255,72.852Z" transform="translate(448.465 221.021)" fill="#cdf1ff"/>
    <path id="path162" d="M631.455-248.476c0,10.8-10.447,19.549-23.33,19.549S584.8-237.678,584.8-248.476s10.443-19.542,23.329-19.542,23.33,8.749,23.33,19.542" transform="translate(-197.423 565.777)" fill="#cde4ff"/>
    <path id="path164" d="M623.868-275.444c0,5.923-4.234,10.72-9.459,10.72s-9.456-4.8-9.456-10.72,4.234-10.717,9.456-10.717,9.459,4.8,9.459,10.717" transform="translate(-167.139 538.518)" fill="#cde4ff"/>
    <path id="path166" d="M779.867-108.253c0,11.144-11.291,20.18-25.221,20.18s-25.221-9.036-25.221-20.18,11.291-20.176,25.221-20.176,25.221,9.035,25.221,20.176" transform="translate(19.872 775.501)" fill="#cde4ff"/>
    <path id="path168" d="M783.812-123.221c0,6.006-6,10.878-13.4,10.878s-13.4-4.872-13.4-10.878,6-10.877,13.4-10.877,13.4,4.871,13.4,10.877" transform="translate(61.326 766.983)" fill="#cde4ff"/>
  </g>
</svg>
