<svg xmlns="http://www.w3.org/2000/svg" width="1921" height="1192.001" viewBox="0 0 1921 1192.001">
  <path id="Subtraction_8" data-name="Subtraction 8" d="M7729.812,860.5c-13.56,0-27.673-.686-41.948-2.039-48.573-4.6-99.146-16.6-154.609-36.693-23.318-8.447-47.6-18.339-74.233-30.241-21.4-9.565-44.433-20.471-72.471-34.323-13.148-6.493-26.505-13.179-39.423-19.644l-.107-.054c-40.51-20.277-82.4-41.244-124.479-59.619-22.654-9.892-43.531-18.254-63.822-25.563-11-3.961-21.947-7.648-32.551-10.96-11.126-3.475-22.252-6.656-33.07-9.456-18.062-4.673-36.634-8.676-56.775-12.239-17.947-3.174-36.739-5.922-57.448-8.4-38.476-4.606-77.916-7.556-116.057-10.41-42.35-3.168-86.143-6.444-128.865-12-20-2.6-39.507-5.777-57.967-9.438-19.928-3.952-39.246-8.59-57.418-13.785a577.562,577.562,0,0,1-55.589-18.9,466.2,466.2,0,0,1-52.478-24.773V-229.449a448.188,448.188,0,0,1,44.968-19.825c14.918-5.647,30.795-10.81,47.189-15.347,15.446-4.274,31.765-8.105,48.5-11.388,15.665-3.072,32.119-5.746,48.9-7.947,43.269-5.676,87.625-8.595,130.52-11.417,32.242-2.122,65.582-4.315,98.2-7.665,17.549-1.8,33.5-3.787,48.76-6.066,17.127-2.559,32.947-5.42,48.364-8.748,17.474-3.771,35.322-8.363,53.05-13.647H8405c-.4,9.947-.888,20.082-1.355,29.883l-.012.245c-1.217,25.462-2.476,51.79-2.479,77.641a557.2,557.2,0,0,0,3.588,66.884,455.326,455.326,0,0,0,10.25,55.319A529.391,529.391,0,0,0,8431.5-47.949v620.2c-15.226.523-30.732.626-45.729.726h-.014c-25.868.172-52.617.35-78.785,2.687-58.521,5.241-118.2,22.21-172.585,49.071a467.287,467.287,0,0,0-77.238,47.821,399.213,399.213,0,0,0-64.6,61.765c-8.7,10.5-17.764,20.46-26.943,29.611a368.813,368.813,0,0,1-28.506,25.648,331.753,331.753,0,0,1-30.129,21.69A311.32,311.32,0,0,1,7875.155,829a306.04,306.04,0,0,1-33.562,13.787,315.919,315.919,0,0,1-35.37,9.842,341.432,341.432,0,0,1-37.24,5.9A384.147,384.147,0,0,1,7729.812,860.5Z" transform="translate(-6510.5 331.5)" fill="#fff"/>
</svg>
