<svg xmlns="http://www.w3.org/2000/svg" width="692.214" height="628.609" viewBox="0 0 692.214 628.609">
  <path id="path444" d="M335.516-430.212c-36.1,61.9-152.594,80.724-193.162,112.472-37.126,29.068-56.895,96.291-54.892,149.856,1.994,53.58,42.694,106.86,96.112,111.332,23.248,1.936,46.5-4.929,69.775-3.345,74.49,5.086,115.983,88.633,181.475,124.462,75.488,41.295,171.689,12.089,241.53-38.159,44.417-31.952,84.39-74.342,98.539-127.2s-4.2-116.865-52.364-142.826c-43.4-23.395-109.493-19.962-126.388-66.268-11.829-32.378,11.231-66.228,16.413-100.305,8.109-53.395-32.508-106.543-83.99-122.866s-98.656-19.142-136.588,19.31c-17.7,17.944-43.761,61.76-56.46,83.534" transform="translate(-87.324 544.417)" fill="#f57677" opacity="0.3"/>
</svg>
