<svg xmlns="http://www.w3.org/2000/svg" width="2134.531" height="2139.871" viewBox="0 0 2134.531 2139.871">
  <path id="Union_35" data-name="Union 35" d="M1.286,366.179a1003.229,1003.229,0,0,0,.955,117.683c20.8,315.259,176.76,548.652,77.388,964.609-17.992,75.333-27.3,145.4-28.8,209.548,267.645,127.592,502.155,179.762,705.131,179.762,604.283,0,929.756-462.112,1022.892-772.506-45.046-28.135-91.11-55.6-135.379-84.823-133.974-88.439-326.14-174.018-497.286-274.7C1057.064,653.319,973.641,596.8,907.1,533.656,690.591,328.175,591.475,29.934,346.435,1.446A212.952,212.952,0,0,0,321.524,0C146.659.025,9.082,213.763,1.286,366.179Zm754.673,1471.6c-202.976,0-437.486-52.169-705.131-179.762-6.453,278.693,134.6,445.555,351.432,445.555,4.923,0,9.916-.1,14.917-.271,262.411-9.08,464.027-309.868,828.3-309.868a687.691,687.691,0,0,1,81.76,4.955c94.526,11.348,178.267,16.532,252.432,16.532,416.559,0,528.262-163.969,517.81-323.3-14.474-220.592-160.476-327.609-318.631-426.343C1685.714,1375.669,1360.242,1837.781,755.958,1837.781Z" transform="translate(36.712) rotate(1)" fill="#fff"/>
</svg>
