<svg xmlns="http://www.w3.org/2000/svg" xmlns:xlink="http://www.w3.org/1999/xlink" width="98.532" height="82.821" viewBox="0 0 98.532 82.821">
  <defs>
    <clipPath id="clip-path">
      <path id="path40" d="M54.8-534.383c3.57,2.4,8.137,3.068,11.541,5.7,4.261,3.295,5.819,8.9,7.452,14.035s4.046,10.668,8.986,12.813c5.205,2.26,11.294-.154,15.843-3.545s8.407-7.8,13.5-10.306c5.566-2.745,11.988-2.93,18.086-4.077s12.571-3.789,15.3-9.364c2.975-6.084.224-13.787-4.847-18.276s-11.917-6.371-18.6-7.477c-3.976-.658-8.359-1.279-11.027-4.3-2.746-3.109-2.738-7.691-3.965-11.653a18.86,18.86,0,0,0-16.27-12.9,18.86,18.86,0,0,0-17.919,10.49c-1.721,3.645-2.335,7.99-5.236,10.788-1.982,1.912-4.732,2.776-7.406,3.431s-5.446,1.186-7.8,2.619c-7.586,4.623-3.858,17.832,2.366,22.022Z" transform="translate(-48.196 583.775)" fill="#cae097"/>
    </clipPath>
  </defs>
  <g id="Group_203" data-name="Group 203" transform="translate(-415.079 -3370.989)">
    <g id="g36" transform="translate(415.079 3370.989)">
      <g id="g38" transform="translate(0 0)" clip-path="url(#clip-path)">
        <path id="path50" d="M54.8-534.383c3.57,2.4,8.137,3.068,11.541,5.7,4.261,3.295,5.819,8.9,7.452,14.035s4.046,10.668,8.986,12.813c5.205,2.26,11.294-.154,15.843-3.545s8.407-7.8,13.5-10.306c5.566-2.745,11.988-2.93,18.086-4.077s12.571-3.789,15.3-9.364c2.975-6.084.224-13.787-4.847-18.276s-11.917-6.371-18.6-7.477c-3.976-.658-8.359-1.279-11.027-4.3-2.746-3.109-2.738-7.691-3.965-11.653a18.86,18.86,0,0,0-16.27-12.9,18.86,18.86,0,0,0-17.919,10.49c-1.721,3.645-2.335,7.99-5.236,10.788-1.982,1.912-4.732,2.776-7.406,3.431s-5.446,1.186-7.8,2.619c-7.586,4.623-3.858,17.832,2.366,22.022" transform="translate(-48.196 583.775)" fill="#cae097"/>
      </g>
    </g>
    <g id="noun-presentation-5023621" transform="translate(318.453 3316.104)">
      <path id="Path_224" data-name="Path 224" d="M117.7,95.03a5.616,5.616,0,1,0-5.615-5.616A5.623,5.623,0,0,0,117.7,95.03Zm0-8.76a3.144,3.144,0,1,1-3.144,3.144A3.148,3.148,0,0,1,117.7,86.271Zm62.356-13H154.414V71.291a1.236,1.236,0,1,0-2.472,0v1.976H126.3a1.347,1.347,0,0,0-1.345,1.345V78.3a1.347,1.347,0,0,0,1.345,1.345h.728V93.128l-3.272,2.387c-.025.018-.05.038-.074.059a6.014,6.014,0,0,1-2.781.272c-.2-.005-.388-.01-.539-.01h-5.493c-5.484,0-9.947,3.964-9.947,8.836V114.7a4.1,4.1,0,0,0,5.729,3.763v13.007a4.1,4.1,0,0,0,6.965,2.931,4.1,4.1,0,0,0,6.965-2.931V105.771l2.448-1.916v11.758a1.235,1.235,0,0,0,1.236,1.236h23.825v5.781l-7.131,7.616a1.236,1.236,0,0,0,1.8,1.689l5.326-5.689v4.845a1.236,1.236,0,0,0,2.472,0v-4.845l5.326,5.689a1.235,1.235,0,1,0,1.8-1.689l-7.131-7.616V116.85h23.825a1.235,1.235,0,0,0,1.236-1.236V79.646h.425a1.347,1.347,0,0,0,1.345-1.345V74.614a1.343,1.343,0,0,0-1.343-1.347Zm-52.62,2.473h51.5v1.435h-51.5ZM122.589,104.2a1.234,1.234,0,0,0-.474.973v26.3a1.629,1.629,0,0,1-3.258,0v-8.99a1.236,1.236,0,0,0-2.472,0v8.99a1.628,1.628,0,1,1-3.257,0v-26.3a1.236,1.236,0,1,0-2.472,0v9.525a1.629,1.629,0,1,1-3.258,0V104.671c0-3.509,3.353-6.365,7.476-6.365h5.493c.133,0,.295,0,.477.009,1.666.042,3.375.012,4.405-.828l9.2-6.708a1.638,1.638,0,0,1,2.276.356,1.674,1.674,0,0,1-.389,2.3Zm54.566,10.182H129.5V101.921l8.35-6.536a4.134,4.134,0,0,0,.863-5.7,4.107,4.107,0,0,0-5.728-.9l-3.483,2.541V79.648h47.651v34.731ZM164,100.436a7.025,7.025,0,0,0,7.017-7.017,1.235,1.235,0,0,0-1.236-1.236h-4.545V87.637A1.235,1.235,0,0,0,164,86.4a7.017,7.017,0,1,0,0,14.035Zm-1.235-11.392v4.375A1.235,1.235,0,0,0,164,94.655h4.375a4.546,4.546,0,1,1-5.611-5.611Zm5,1.733h5.782a1.235,1.235,0,0,0,1.236-1.236,7.025,7.025,0,0,0-7.017-7.017,1.235,1.235,0,0,0-1.236,1.236v5.782A1.235,1.235,0,0,0,167.771,90.778Zm1.235-5.611a4.565,4.565,0,0,1,3.139,3.139h-3.139ZM156.5,105.637a1.235,1.235,0,0,1,1.236-1.236h15.4a1.236,1.236,0,1,1,0,2.472h-15.4a1.237,1.237,0,0,1-1.237-1.236Zm0,4.415a1.235,1.235,0,0,1,1.236-1.236h15.4a1.236,1.236,0,1,1,0,2.472h-15.4a1.236,1.236,0,0,1-1.237-1.236Zm-5.763-4.415a1.235,1.235,0,0,1-1.236,1.236H134.1a1.236,1.236,0,1,1,0-2.472h15.4a1.236,1.236,0,0,1,1.235,1.236Zm0,4.415a1.235,1.235,0,0,1-1.236,1.236H134.1a1.236,1.236,0,1,1,0-2.472h15.4a1.236,1.236,0,0,1,1.235,1.236Zm0-9.181a1.235,1.235,0,0,1-1.236,1.236H134.1a1.236,1.236,0,1,1,0-2.472h15.4a1.236,1.236,0,0,1,1.235,1.237Zm-9.72-4.765a1.235,1.235,0,0,1,1.236-1.236H149.5a1.236,1.236,0,1,1,0,2.472h-7.249A1.237,1.237,0,0,1,141.012,96.106Zm0-4.767a1.235,1.235,0,0,1,1.236-1.236H149.5a1.236,1.236,0,1,1,0,2.472h-7.249A1.236,1.236,0,0,1,141.012,91.339Zm0-4.765a1.235,1.235,0,0,1,1.236-1.236H149.5a1.236,1.236,0,1,1,0,2.472h-7.249A1.236,1.236,0,0,1,141.012,86.574Z" transform="translate(0)"/>
    </g>
  </g>
</svg>
