<svg xmlns="http://www.w3.org/2000/svg" width="98.237" height="73.079" viewBox="0 0 98.237 73.079">
  <g id="Group_231" data-name="Group 231" transform="translate(0 0)" opacity="0.2">
    <path id="Union_88" data-name="Union 88" d="M1005.5-5146.092a1.919,1.919,0,0,1,1.92-1.919,1.919,1.919,0,0,1,1.92,1.919,1.92,1.92,0,0,1-1.92,1.92A1.92,1.92,0,0,1,1005.5-5146.092Zm8.789-3.538c-4.463-.421-8.656-2.273-12.674-4.258s-8-4.147-12.343-5.271c-4.916-1.271-10.073-1.156-15.107-1.81s-10.269-2.28-13.547-6.157c-2.919-3.449-3.839-8.18-3.833-12.7,0-.072,0-.143,0-.216.035-4.286.9-8.787,3.69-12.042,2.991-3.491,7.705-5,12.262-5.6s9.214-.456,13.708-1.426c7.175-1.549,13.418-5.8,19.606-9.754s12.812-7.792,20.133-8.335,15.474,3.218,17.639,10.232a17.752,17.752,0,0,1,.677,5.289c0,2.161-.207,4.354-.208,6.528a23.389,23.389,0,0,0,.152,2.813c.639,5.309,3.6,10.021,6.642,14.417a25.133,25.133,0,0,1,3.4,5.963,9.631,9.631,0,0,1,.532,3.086,6.654,6.654,0,0,1-.953,3.562c-1.317,2.1-3.852,3.135-6.31,3.467s-4.958.1-7.427.315a19.933,19.933,0,0,0-13.226,6.675,13.665,13.665,0,0,1-11.052,5.307C1015.478-5149.543,1014.892-5149.572,1014.288-5149.63Zm-49.89-55.725a3.839,3.839,0,0,1,3.839-3.839,3.84,3.84,0,0,1,3.839,3.839,3.84,3.84,0,0,1-3.839,3.839A3.839,3.839,0,0,1,964.4-5205.355Z" transform="translate(-956.784 5217.25)" fill="#f154af"/>
  </g>
</svg>
