<svg xmlns="http://www.w3.org/2000/svg" width="76" height="61.75" viewBox="0 0 76 61.75">
  <g id="Group_137" data-name="Group 137" transform="translate(-138.349 -1931)">
    <g id="Subtraction_2" data-name="Subtraction 2" transform="translate(8122.35 6247)" fill="none">
      <path d="M-7972.252-4265.25V-4277H-7975a9.011,9.011,0,0,1-9-9v-21a9.011,9.011,0,0,1,9-9h34a9.011,9.011,0,0,1,9,9v4h-17a9.011,9.011,0,0,0-9,9v17h-3.9l-10.353,11.748Z" stroke="none"/>
      <path d="M -7970.25244140625 -4270.544921875 L -7962.80078125 -4279.00048828125 L -7960 -4279.00048828125 L -7960 -4293.998046875 C -7960 -4300.06396484375 -7955.0654296875 -4304.99853515625 -7948.99951171875 -4304.99853515625 L -7934 -4304.99853515625 L -7934 -4307 C -7934 -4310.85986328125 -7937.140625 -4314.00048828125 -7941.00048828125 -4314.00048828125 L -7974.99951171875 -4314.00048828125 C -7978.85986328125 -4314.00048828125 -7982.00048828125 -4310.85986328125 -7982.00048828125 -4307 L -7982.00048828125 -4286.0009765625 C -7982.00048828125 -4282.14111328125 -7978.85986328125 -4279.00048828125 -7974.99951171875 -4279.00048828125 L -7970.25244140625 -4279.00048828125 L -7970.25244140625 -4270.544921875 M -7972.25244140625 -4265.25048828125 L -7972.25244140625 -4277.00048828125 L -7974.99951171875 -4277.00048828125 C -7979.962890625 -4277.00048828125 -7984.00048828125 -4281.0380859375 -7984.00048828125 -4286.0009765625 L -7984.00048828125 -4307 C -7984.00048828125 -4311.962890625 -7979.962890625 -4316.00048828125 -7974.99951171875 -4316.00048828125 L -7941.00048828125 -4316.00048828125 C -7936.03759765625 -4316.00048828125 -7932 -4311.962890625 -7932 -4307 L -7932 -4302.99853515625 L -7948.99951171875 -4302.99853515625 C -7953.96240234375 -4302.99853515625 -7958 -4298.9609375 -7958 -4293.998046875 L -7958 -4277.00048828125 L -7961.8974609375 -4277.00048828125 L -7972.25244140625 -4265.25048828125 Z" stroke="none" fill="#000"/>
    </g>
    <g id="Group_133" data-name="Group 133" transform="translate(12.35 -274)">
      <circle id="Ellipse_18" data-name="Ellipse 18" cx="3" cy="3" r="3" transform="translate(138 2221)"/>
    </g>
    <g id="Union_20" data-name="Union 20" transform="translate(214.35 1992.75) rotate(180)" fill="none">
      <path d="M9,50.749a9,9,0,0,1-9-9v-21a9,9,0,0,1,9-9h2.746V0L22.1,11.75H43a9,9,0,0,1,9,9v21a9,9,0,0,1-9,9Z" stroke="none"/>
      <path d="M 43.00020217895508 48.74920272827148 C 46.86001205444336 48.74920272827148 50.00020217895508 45.60901260375977 50.00020217895508 41.74920272827148 L 50.00020217895508 20.74950218200684 C 50.00020217895508 16.88969230651855 46.86001205444336 13.74950122833252 43.00020217895508 13.74950122833252 L 21.19901084899902 13.74950122833252 L 13.74680137634277 5.294055461883545 L 13.74680137634277 13.74950122833252 L 9.000901222229004 13.74950122833252 C 5.141091346740723 13.74950122833252 2.000901222229004 16.88969230651855 2.000901222229004 20.74950218200684 L 2.000901222229004 41.74920272827148 C 2.000901222229004 45.60901260375977 5.141091346740723 48.74920272827148 9.000901222229004 48.74920272827148 L 43.00020217895508 48.74920272827148 M 43.00020217895508 50.74920272827148 L 9.000901222229004 50.74920272827148 C 4.030201435089111 50.74920272827148 0.00090122374240309 46.71990203857422 0.00090122374240309 41.74920272827148 L 0.00090122374240309 20.74950218200684 C 0.00090122374240309 15.77880096435547 4.030201435089111 11.74950122833252 9.000901222229004 11.74950122833252 L 11.74680137634277 11.74950122833252 L 11.74680137634277 1.364135755466123e-06 L 22.10223197937012 11.74950122833252 L 43.00020217895508 11.74950122833252 C 47.97090148925781 11.74950122833252 52.00020217895508 15.77880096435547 52.00020217895508 20.74950218200684 L 52.00020217895508 41.74920272827148 C 52.00020217895508 46.71990203857422 47.97090148925781 50.74920272827148 43.00020217895508 50.74920272827148 Z" stroke="none" fill="#000"/>
    </g>
    <g id="Group_133-2" data-name="Group 133" transform="translate(174.349 1958)">
      <circle id="Ellipse_18-2" data-name="Ellipse 18" cx="3" cy="3" r="3" transform="translate(22)"/>
      <circle id="Ellipse_19" data-name="Ellipse 19" cx="3" cy="3" r="3" transform="translate(11)"/>
      <circle id="Ellipse_20" data-name="Ellipse 20" cx="3" cy="3" r="3"/>
    </g>
  </g>
</svg>
