<svg xmlns="http://www.w3.org/2000/svg" width="429.331" height="347.17" viewBox="0 0 429.331 347.17">
  <path id="Union_85" data-name="Union 85" d="M311.385,327.282a99.349,99.349,0,0,1-15.653-4.1c-47.4-16.654-65.8-63.744-115.071-63.744a87.153,87.153,0,0,0-14.616,1.287c-8.007,1.361-16.25,3.252-24.624,5.271-30.38-31.147-59.726-72.82-85.18-123.3q-4.877-9.664-8.431-18.839c13.069-7.647,27.269-13.378,37.1-15.4,19.553-4.025,41.556-4.692,59.023-16.214C176.38,70.845,175.692,9.809,211.264-13a34.975,34.975,0,0,1,19.228-5.9c20.672,0,40.462,18.536,58.844,32,17.987,13.176,37.477,20.59,57.514,26.793,6.582,2.039,13.175,4,19.755,6,14.231,4.326,28.408,8.847,42.339,14.794C465.865,85,410.1,146.727,401.485,161.394c-23.037,39.229-2.67,86.738-18.023,128.092-10.29,27.712-37.35,38.79-60.413,38.79A67.333,67.333,0,0,1,311.385,327.282Zm-15.653-4.1c46.968-21.084,79.856-89.657,79.856-217.026h0C375.588,233.528,342.7,302.1,295.732,323.185ZM398.868,292.3c0-5.995,5.4-10.855,12.059-10.855s12.06,4.86,12.06,10.855-5.4,10.851-12.06,10.851S398.868,298.294,398.868,292.3ZM33.36,266.019C-1.265,244.533-2.647,177.278,20.27,146.481c6.1-8.2,16.411-16.1,27.541-22.617q3.569,9.174,8.431,18.837c25.454,50.48,54.8,92.151,85.18,123.3-21.56,5.2-43.967,11.233-65.349,11.233C61.12,277.232,46.667,274.28,33.36,266.019ZM153.374,6.432c0-3.552,3.24-6.433,7.236-6.433s7.234,2.88,7.234,6.433-3.24,6.433-7.234,6.433S153.374,9.984,153.374,6.432Z" transform="translate(-4.894 18.896)" fill="red" opacity="0.3"/>
</svg>
