<svg xmlns="http://www.w3.org/2000/svg" width="416.058" height="368.344" viewBox="0 0 416.058 368.344">
  <path id="Union_82" data-name="Union 82" d="M1989.463-1041.4c0-4.488,4.042-8.125,9.026-8.125s9.031,3.637,9.031,8.125-4.043,8.125-9.031,8.125S1989.463-1036.91,1989.463-1041.4Zm67.694-16.9a86.063,86.063,0,0,1-15.455-1.468c-17.653-3.219-38.834-11.863-66.222-27.433-76.772-43.643-155.7,1.142-165.861-49.982-12.5-62.911,51.389-89.786,52.105-138.7.563-38.452,1.577-91.727,37.353-91.727,10.075,0,22.917,4.228,39.279,14.21.331.2.664.4,1,.6,44.01,25.732,110.711-7.806,140.474,38.646,25.289,39.47,36.5,66.861,72.313,66.861a92.211,92.211,0,0,0,16.389-1.614q1.173-.218,2.378-.457a78.61,78.61,0,0,1,15.5-1.656c52.173,0,54.125,64.3-19.566,123.447-4.917,3.944-9.562,7.809-13.991,11.568-38.689,32.862-60.483,57.7-95.687,57.7Zm-192.51-120.14c0-.024,0-.049,0-.073C1864.646-1178.487,1864.646-1178.463,1864.648-1178.438Zm27.313-212.344a11.067,11.067,0,0,1,11.284-10.835,11.067,11.067,0,0,1,11.284,10.835,11.065,11.065,0,0,1-11.284,10.833A11.065,11.065,0,0,1,1891.961-1390.782Z" transform="translate(-1808 1401.617)" fill="#9fcc3b" opacity="0.4"/>
</svg>
