<svg xmlns="http://www.w3.org/2000/svg" width="401.822" height="374.171" viewBox="0 0 401.822 374.171">
  <path id="Union_86" data-name="Union 86" d="M1815.152-1168.135a168.7,168.7,0,0,1,.179-20.932c3.915-56.076,33.271-97.591,14.566-171.58a169.767,169.767,0,0,1-5.419-37.273c-1.215-49.572,25.332-79.252,66.144-79.252.927,0,1.866.018,2.809.047,49.391,1.615,87.339,55.118,155.9,55.118a136.793,136.793,0,0,0,15.39-.881,423.778,423.778,0,0,1,47.513-2.941c78.4,0,99.429,29.167,97.461,57.508-2.723,39.237-30.2,58.271-59.972,75.835-8.479,5-17.149,9.888-25.48,15.087-25.218,15.73-61.386,30.953-93.6,48.861-16.774,9.327-32.477,19.381-45,30.612-40.75,36.55-59.408,89.6-105.527,94.667a42.768,42.768,0,0,1-4.689.257C1842.515-1103,1816.62-1141.022,1815.152-1168.135Zm55.677-.38c27.1,0,51.745-14.087,76.677-28.611C1922.574-1182.6,1897.93-1168.515,1870.829-1168.515Zm139.311-19.074c0-7.23,7.327-13.094,16.367-13.094s16.368,5.864,16.368,13.094-7.327,13.094-16.368,13.094S2010.14-1180.358,2010.14-1187.589ZM1808-1449.88c0-3.841,2.747-6.954,6.136-6.954s6.138,3.113,6.138,6.954-2.747,6.956-6.138,6.956S1808-1446.037,1808-1449.88Z" transform="translate(-1808 1477.171)" fill="#7bd2f5" opacity="0.4"/>
</svg>
