<svg xmlns="http://www.w3.org/2000/svg" xmlns:xlink="http://www.w3.org/1999/xlink" width="81.482" height="80.568" viewBox="0 0 81.482 80.568">
  <defs>
    <clipPath id="clip-path">
      <path id="path232" d="M391.521-545.075c.767,7.559-2.282,14.754-4.616,21.772-1.08,3.248-1.733,6.578-2.644,9.835a9.559,9.559,0,0,0,1.823,9.1c2.457,2.873,6.2,4.34,9.927,5a30.6,30.6,0,0,0,12.955-.522c4.458-1.152,7.484-3.4,10.945-6.347,5.232-4.448,10.357-10.061,17.429-11.336,8.1-1.46,16.816,2.768,23.312-4.163,4.251-4.534,5.51-11.842,4.127-17.762a19.371,19.371,0,0,0-6.944-10.833c-3.908-3.128-8.9-3.895-13.413-5.8a36.087,36.087,0,0,1-8.791-5.513c-2.7-2.225-4.938-5.039-7.643-7.22a49.541,49.541,0,0,0-18.462-9.218c-6.181-1.559-15.519-2.846-20.513,2.15C380.994-567.917,390.6-554.129,391.521-545.075Z" transform="translate(-383.833 579.482)" fill="#cae097"/>
    </clipPath>
  </defs>
  <g id="g230" transform="translate(0 0)" clip-path="url(#clip-path)">
    <path id="path242" d="M391.521-545.075c.767,7.559-2.282,14.754-4.616,21.772-1.08,3.248-1.733,6.578-2.644,9.835a9.559,9.559,0,0,0,1.823,9.1c2.457,2.873,6.2,4.34,9.927,5a30.6,30.6,0,0,0,12.955-.522c4.458-1.152,7.484-3.4,10.945-6.347,5.232-4.448,10.357-10.061,17.429-11.336,8.1-1.46,16.816,2.768,23.312-4.163,4.251-4.534,5.51-11.842,4.127-17.762a19.371,19.371,0,0,0-6.944-10.833c-3.908-3.128-8.9-3.895-13.413-5.8a36.087,36.087,0,0,1-8.791-5.513c-2.7-2.225-4.938-5.039-7.643-7.22a49.541,49.541,0,0,0-18.462-9.218c-6.181-1.559-15.519-2.846-20.513,2.15-8.019,8.021,1.59,21.809,2.509,30.862" transform="translate(-383.833 579.482)" fill="#cae097"/>
  </g>
</svg>
