<svg xmlns="http://www.w3.org/2000/svg" width="97.806" height="67.393" viewBox="0 0 97.806 67.393">
  <path id="Path_199" data-name="Path 199" d="M147.526,325.791a30.709,30.709,0,0,0-1.2-17.589c-3.239-8.815-13.569-16.386-22.924-16.086a26.206,26.206,0,0,0-14.14,4.74c-2.669,1.876-5,4.251-7.81,5.894-13.355,7.8-35.147-3.97-46.112,8.479-5.161,5.86-6.066,16.418-3.336,23.21a33.046,33.046,0,0,0,7.613,10.9,23.875,23.875,0,0,0,7.168,5.186c4.218,1.828,9.053,1.811,13.6,2.75,8.118,1.678,15.5,6.241,24.006,6.228,7.238-.011,14.531-2.926,19.2-8.126,2.679-2.98,4.671-6.777,8.2-9.013,1.807-1.145,3.824-1.264,5.634-2.418a23.967,23.967,0,0,0,5.162-4.444A22.9,22.9,0,0,0,147.526,325.791Z" transform="translate(-50.493 -292.107)" fill="#9fcc3b" opacity="0.5"/>
</svg>
