<svg xmlns="http://www.w3.org/2000/svg" width="84.242" height="87.382" viewBox="0 0 84.242 87.382">
  <g id="Group_204" data-name="Group 204" transform="translate(-330.837 -2959.548)">
    <path id="Path_223" data-name="Path 223" d="M57.382,346.683A21.782,21.782,0,0,0,69,361.547a28.169,28.169,0,0,0,19.916,1.734c8.092-2.186,15.172-7.5,23.42-8.991,5.744-1.041,12.016-.235,17.11-3.086,2.863-1.6,5.019-4.2,6.984-6.825a25.13,25.13,0,0,0,3.533-5.884c2.236-5.8.385-12.544-3.262-17.573a43.349,43.349,0,0,0-10.472-9.668c-3.317-2.332-4.981-5.806-8.071-8.49a34.682,34.682,0,0,0-23.773-8.155c-11.3.382-19.73,6.056-27.7,13.488-2.95,2.753-4.491,7.537-5.817,11.232-2.872,8.006-4.95,16.534-3.907,24.975Q57.118,345.515,57.382,346.683Z" transform="translate(274.143 2682.603)" fill="#9fcc3b" opacity="0.5"/>
    <g id="noun_understanding_2922559" transform="translate(332.631 2959.548)">
      <path id="Path_166" data-name="Path 166" d="M65.158,116a1.158,1.158,0,1,0,0,2.315h8.1a1.158,1.158,0,1,0,0-2.315Z" transform="translate(-21.903 -48.861)"/>
      <path id="Path_167" data-name="Path 167" d="M51.515,22.128A3.6,3.6,0,0,0,48,25.795v1.349a3.6,3.6,0,0,0,3.516,3.667h.015q.065.163.134.323l-.011.011a3.465,3.465,0,0,0-1,2.655,3.74,3.74,0,0,0,1.105,2.427l.949.951a3.773,3.773,0,0,0,2.639,1.109,3.429,3.429,0,0,0,2.439-1l.015-.015q.16.069.322.134v.016A3.6,3.6,0,0,0,61.8,40.939h1.349a3.6,3.6,0,0,0,3.666-3.515v-.016q.163-.065.323-.134l.01.01a3.431,3.431,0,0,0,2.443,1,3.764,3.764,0,0,0,2.636-1.107l.956-.956a3.6,3.6,0,0,0,.107-5.077l-.012-.012q.07-.161.134-.324h.015a3.6,3.6,0,0,0,3.516-3.667V25.795a3.6,3.6,0,0,0-3.516-3.667h-.014q-.065-.163-.134-.324l.012-.012a3.6,3.6,0,0,0-.105-5.076l-.957-.956a3.757,3.757,0,0,0-2.635-1.108,3.424,3.424,0,0,0-2.444,1l-.008.008q-.161-.07-.324-.134v-.015A3.6,3.6,0,0,0,63.144,12H61.8a3.6,3.6,0,0,0-3.668,3.516v.016q-.162.064-.323.134l-.01-.01a3.424,3.424,0,0,0-2.442-1,3.765,3.765,0,0,0-2.637,1.108l-.955.955a3.737,3.737,0,0,0-1.1,2.424,3.463,3.463,0,0,0,.993,2.653l.013.013q-.069.161-.134.323Zm1.721,2.315a9.422,9.422,0,0,1,1.272-3.069l-1.218-1.218a1.282,1.282,0,0,1,.107-1.8l.954-.954a1.428,1.428,0,0,1,1-.431,1.123,1.123,0,0,1,.805.324l1.217,1.217a9.407,9.407,0,0,1,3.069-1.271V15.515a1.282,1.282,0,0,1,1.353-1.2h1.349a1.282,1.282,0,0,1,1.351,1.2v1.722a9.392,9.392,0,0,1,3.07,1.271l1.217-1.217a1.123,1.123,0,0,1,.805-.324,1.424,1.424,0,0,1,1,.431l.955.954a1.284,1.284,0,0,1,.105,1.8l-1.216,1.218A9.43,9.43,0,0,1,71.7,24.443h1.72a1.283,1.283,0,0,1,1.2,1.352v1.349a1.283,1.283,0,0,1-1.2,1.352H71.7a9.444,9.444,0,0,1-1.271,3.07l1.216,1.217a1.283,1.283,0,0,1-.105,1.8l-.955.955a1.426,1.426,0,0,1-1,.429,1.126,1.126,0,0,1-.8-.322l-1.217-1.22A9.381,9.381,0,0,1,64.5,35.7v1.721a1.283,1.283,0,0,1-1.351,1.2H61.8a1.283,1.283,0,0,1-1.353-1.2V35.7a9.4,9.4,0,0,1-3.069-1.274l-1.217,1.22a1.126,1.126,0,0,1-.8.322,1.431,1.431,0,0,1-1-.429l-.954-.955a1.281,1.281,0,0,1-.107-1.8l1.218-1.217a9.435,9.435,0,0,1-1.272-3.07H51.515a1.283,1.283,0,0,1-1.2-1.352V25.795a1.282,1.282,0,0,1,1.2-1.352Z" transform="translate(-15.163 -5.054)"/>
      <path id="Path_168" data-name="Path 168" d="M68.367,38.733A6.367,6.367,0,1,0,62,32.367a6.367,6.367,0,0,0,6.367,6.367Zm0-10.418a4.051,4.051,0,1,1-4.051,4.051A4.051,4.051,0,0,1,68.367,28.315Z" transform="translate(-21.061 -10.952)"/>
      <path id="Path_169" data-name="Path 169" d="M47.306,0a24.422,24.422,0,0,0-5.59.653A35.034,35.034,0,0,0,25.078,8.39C18.3,14.174,11.769,28.25,16.957,37.139a.335.335,0,0,1,.025.293L12.238,47.811a1.148,1.148,0,0,0-.048.123,4.172,4.172,0,0,0,.485,3.521A4.739,4.739,0,0,0,16.6,53.16l-.531,3.661a1.136,1.136,0,0,0-.01.225,1.734,1.734,0,0,0,.423,1.033,1.529,1.529,0,0,0,.981.5l1.365.251L17.944,60a1.147,1.147,0,0,0-.127.211,1.641,1.641,0,0,0,.075,1.521l.852,1.45a7.607,7.607,0,0,1,.749,3.342l-.032,1.43a4.725,4.725,0,0,0,3,4.46c1.977.8,4.718.846,8.145.154.031-.006.06-.013.09-.022.049-.013,4.928-1.376,8.444.813a4.708,4.708,0,0,0,2.483.73h9.734a1.149,1.149,0,1,0,0-2.3H41.626a2.386,2.386,0,0,1-1.253-.379c-4.218-2.626-9.65-1.256-10.267-1.087-3.678.737-5.713.386-6.773-.04a2.44,2.44,0,0,1-1.556-2.291l.032-1.431a9.79,9.79,0,0,0-1.063-4.538l-.629-1.07L21.4,59.257a1.147,1.147,0,0,0,.127-.211A1.652,1.652,0,0,0,20.965,57a1.162,1.162,0,0,0-.455-.19l-2.049-.377.474-3.269a1.473,1.473,0,0,0,.01-.226,2.041,2.041,0,0,0-2.16-2.068,2.927,2.927,0,0,1-2.22-.739,1.912,1.912,0,0,1-.182-1.451L19.1,38.36c.023-.052.039-.107.058-.16H20.1a1.158,1.158,0,1,0,0-2.315H18.946c-.013,0-.025,0-.038,0-4.424-7.772,1.668-20.626,7.68-25.758.689-.588,1.425-1.138,2.179-1.671A25.673,25.673,0,0,0,25.7,37.92a5.521,5.521,0,0,1,1.141-1.652l.393-.393a23.414,23.414,0,0,1-2.5-10.527A22.832,22.832,0,0,1,47.306,2.315,22.832,22.832,0,0,1,69.879,25.348,23.175,23.175,0,0,1,63.6,41.288a35.786,35.786,0,0,0-6.9,10.991,43.442,43.442,0,0,0-2.12,8.809,1.61,1.61,0,0,1-1.531,1.42H41.563a1.609,1.609,0,0,1-1.53-1.42c-.228-1.551-.574-3.423-1.005-5.183a5.482,5.482,0,0,1-2.2.769c.392,1.641.709,3.374.912,4.751a3.887,3.887,0,0,0,3.821,3.4H53.049a3.888,3.888,0,0,0,3.821-3.4,41.943,41.943,0,0,1,1.97-8.267,33.494,33.494,0,0,1,6.447-10.285,25.481,25.481,0,0,0,6.907-17.525A25.15,25.15,0,0,0,47.306,0Z" transform="translate(0 0)"/>
      <path id="Path_170" data-name="Path 170" d="M37.648,74.429A3.2,3.2,0,0,0,38.59,76.5l.586.587a3.225,3.225,0,0,0,2.258.945,3.048,3.048,0,0,0,1.1-.2,3.161,3.161,0,0,0,2.893,1.843h.835a3.16,3.16,0,0,0,2.893-1.844,3.043,3.043,0,0,0,1.1.2,3.218,3.218,0,0,0,2.255-.943l.592-.592a3.163,3.163,0,0,0,.74-3.351,3.161,3.161,0,0,0,1.846-2.894v-.835a3.16,3.16,0,0,0-1.846-2.894,3.161,3.161,0,0,0-.738-3.349l-.593-.593a3.213,3.213,0,0,0-2.255-.944,3.045,3.045,0,0,0-1.1.2A3.16,3.16,0,0,0,46.257,60h-.835a3.161,3.161,0,0,0-2.893,1.844,3.047,3.047,0,0,0-1.1-.2,3.219,3.219,0,0,0-2.256.944l-.591.592a3.193,3.193,0,0,0-.939,2.072,3.058,3.058,0,0,0,.2,1.278A3.16,3.16,0,0,0,36,69.422v.835a3.161,3.161,0,0,0,1.846,2.894A3.055,3.055,0,0,0,37.648,74.429Zm.667-5.007a.794.794,0,0,1,.743-.837h1.065a5.832,5.832,0,0,1,.788-1.9l-.754-.754a.793.793,0,0,1,.066-1.117l.59-.591a.884.884,0,0,1,.619-.267.7.7,0,0,1,.5.2l.753.753a5.824,5.824,0,0,1,1.9-.787V63.058a.794.794,0,0,1,.837-.743h.835a.793.793,0,0,1,.837.743v1.066a5.814,5.814,0,0,1,1.9.787l.754-.753a.7.7,0,0,1,.5-.2.881.881,0,0,1,.619.267l.591.591a.8.8,0,0,1,.065,1.117l-.753.754a5.837,5.837,0,0,1,.787,1.9H52.62a.794.794,0,0,1,.744.837v.835a.794.794,0,0,1-.744.837H51.555a5.845,5.845,0,0,1-.787,1.9l.753.753a.794.794,0,0,1-.065,1.117l-.591.591a.883.883,0,0,1-.619.266.7.7,0,0,1-.5-.2l-.754-.755a5.806,5.806,0,0,1-1.9.789v1.065a.794.794,0,0,1-.837.743h-.835a.794.794,0,0,1-.837-.743V75.555a5.816,5.816,0,0,1-1.9-.789l-.753.755a.7.7,0,0,1-.5.2.886.886,0,0,1-.619-.266l-.59-.591a.793.793,0,0,1-.066-1.117l.754-.753a5.841,5.841,0,0,1-.788-1.9H39.058a.794.794,0,0,1-.743-.837Z" transform="translate(-10.109 -25.273)"/>
      <path id="Path_171" data-name="Path 171" d="M50.051,78.1A4.051,4.051,0,1,0,46,74.051,4.051,4.051,0,0,0,50.051,78.1Zm0-5.788a1.736,1.736,0,1,1-1.736,1.736,1.736,1.736,0,0,1,1.736-1.736Z" transform="translate(-14.321 -29.485)"/>
    </g>
  </g>
</svg>
