<svg xmlns="http://www.w3.org/2000/svg" width="82.256" height="78.017" viewBox="0 0 82.256 78.017">
  <path id="Union_71" data-name="Union 71" d="M56.472,76.639v0c-.064-.026-.133-.056-.2-.079a38.241,38.241,0,0,0-25.7-.946c-.044.016-.09.03-.14.05a16.863,16.863,0,0,1-22.09-16,17.1,17.1,0,0,1,.1-1.847,38.524,38.524,0,0,0,.219-4.084,38.215,38.215,0,0,0-6.49-21.31A12.763,12.763,0,0,1,15.1,12.77l.064.012A38.2,38.2,0,0,0,47.28,3.945l0,.005A15.921,15.921,0,0,1,73.34,19.294a38.174,38.174,0,0,0,5.7,29.5,18.732,18.732,0,0,1-22.565,27.85ZM1.232,67.465a1.981,1.981,0,1,1,1.981,1.979A1.981,1.981,0,0,1,1.232,67.465Zm73.1-54.346A3.961,3.961,0,1,1,78.3,17.081,3.961,3.961,0,0,1,74.334,13.119Z" transform="translate(0)" fill="#ed175f" opacity="0.1"/>
</svg>
