<svg xmlns="http://www.w3.org/2000/svg" xmlns:xlink="http://www.w3.org/1999/xlink" width="80.613" height="80.438" viewBox="0 0 80.613 80.438">
  <defs>
    <clipPath id="clip-path">
      <path id="path216" d="M372.317-508.5a17.993,17.993,0,0,0,4.308,2.039c4.535,1.457,9.386,1.787,13.87,3.4a25.625,25.625,0,0,1,7.688,4.4c2.415,2,4.1,4.68,6.664,6.513,13.838,9.906,26.767-6.141,30.9-17.936,2.539-7.253,3.831-14.868,6.191-22.176,2.262-7.006,4.432-15.067,1.734-22.264-5.515-14.716-23.276-15.983-36.491-14.491-13.288,1.5-27.708,5.347-33.375,18.862-1.515,3.612-2.214,7.5-3.294,11.269-1.654,5.767-6.529,10.086-6.183,16.282a17.769,17.769,0,0,0,7.992,14.1Z" transform="translate(-364.308 569.501)" fill="#cae097"/>
    </clipPath>
  </defs>
  <g id="Group_200" data-name="Group 200" transform="translate(-1085.133 -3048.68)">
    <g id="g212" transform="translate(1085.133 3048.68)">
      <g id="g214" transform="translate(0 0)" clip-path="url(#clip-path)">
        <path id="path226" d="M372.317-508.5a17.993,17.993,0,0,0,4.308,2.039c4.535,1.457,9.386,1.787,13.87,3.4a25.625,25.625,0,0,1,7.688,4.4c2.415,2,4.1,4.68,6.664,6.513,13.838,9.906,26.767-6.141,30.9-17.936,2.539-7.253,3.831-14.868,6.191-22.176,2.262-7.006,4.432-15.067,1.734-22.264-5.515-14.716-23.276-15.983-36.491-14.491-13.288,1.5-27.708,5.347-33.375,18.862-1.515,3.612-2.214,7.5-3.294,11.269-1.654,5.767-6.529,10.086-6.183,16.282a17.769,17.769,0,0,0,7.992,14.1" transform="translate(-364.308 569.501)" fill="#cae097"/>
      </g>
    </g>
    <g id="noun_notes_4239468" transform="translate(1098.982 3052.752)">
      <path id="Path_182" data-name="Path 182" d="M6.028,56.013H9.137v2.855a1.029,1.029,0,0,0,1.03,1.029H37.1l.158,3.6-.725,1.462a1.029,1.029,0,0,0,1.844.914l.728-1.468L45.6,59.9h4.051a1.029,1.029,0,0,0,1.029-1.03V50.236l12-24.206,1.589.787a.786.786,0,0,1,.355,1.052l-6.443,13a1.029,1.029,0,0,0,1.845.914l6.443-13a2.843,2.843,0,0,0-1.285-3.811l-1.589-.787L65.619,20.1a2.789,2.789,0,0,0-1.261-3.723L60.179,14.3a2.779,2.779,0,0,0-2.121-.139,2.744,2.744,0,0,0-1.6,1.4l-3.239,6.526A1.029,1.029,0,1,0,55.063,23l3.242-6.533a.7.7,0,0,1,.41-.36.728.728,0,0,1,.554.035l4.173,2.073a.726.726,0,0,1,.331.967L61.3,24.167c0,.009-.011.016-.016.025s-.006.018-.01.027L59.29,28.23l-3.744-1.856a1.029,1.029,0,0,0-.914,1.845l3.744,1.855L48.73,49.538v0l-3.954,7.975L42.92,56.6l-3.614-1.79,3.128-6.314L50.575,32.06v0l2.785-5.618a1.029,1.029,0,1,0-1.844-.914l-.835,1.684V10.762a1.029,1.029,0,0,0-1.03-1.029H46.544V6.878a1.029,1.029,0,0,0-1.03-1.029h-30a1.029,1.029,0,0,0-.728.3L5.3,15.641a1.029,1.029,0,0,0-.3.728V54.984a1.029,1.029,0,0,0,1.03,1.029ZM11.2,57.838V56.013H36.927l.08,1.825Zm32.025,1.205L39.242,61.8l-.212-4.836,1.171.58Zm3.692-1.205,1.71-3.45v3.45Zm1.71-46.047v19.57l-2.079,4.2V11.792ZM15.945,7.907h28.54V39.714l-.412.832L37.43,53.954H7.058V17.4h8.463a1.029,1.029,0,0,0,1.029-1.03V11.624a1.029,1.029,0,1,0-2.059,0v3.716H8.512Z" transform="translate(0 0)"/>
      <path id="Path_183" data-name="Path 183" d="M18.135,29.553a1.029,1.029,0,0,0,1.03,1.029H40.623a1.029,1.029,0,0,0,0-2.059H19.165a1.029,1.029,0,0,0-1.029,1.03Z" transform="translate(-4.122 -7.114)"/>
      <path id="Path_184" data-name="Path 184" d="M12.147,35.626a1.029,1.029,0,0,0,1.03,1.029H42.853a1.029,1.029,0,0,0,0-2.059H13.176a1.029,1.029,0,0,0-1.029,1.03Z" transform="translate(-2.243 -9.02)"/>
      <path id="Path_185" data-name="Path 185" d="M42.853,40.669H13.176a1.029,1.029,0,0,0,0,2.059H42.853a1.029,1.029,0,0,0,0-2.059Z" transform="translate(-2.243 -10.925)"/>
      <path id="Path_186" data-name="Path 186" d="M42.853,46.742H13.176a1.029,1.029,0,0,0,0,2.059H42.853a1.029,1.029,0,0,0,0-2.059Z" transform="translate(-2.243 -12.83)"/>
      <path id="Path_187" data-name="Path 187" d="M42.853,52.814H13.176a1.029,1.029,0,0,0,0,2.059H42.853a1.029,1.029,0,1,0,0-2.059Z" transform="translate(-2.243 -14.736)"/>
      <path id="Path_188" data-name="Path 188" d="M41.182,58.887H13.176a1.029,1.029,0,0,0,0,2.059H41.182a1.029,1.029,0,0,0,0-2.059Z" transform="translate(-2.243 -16.641)"/>
      <path id="Path_189" data-name="Path 189" d="M38.744,64.96H13.176a1.029,1.029,0,0,0,0,2.059H38.744a1.029,1.029,0,1,0,0-2.059Z" transform="translate(-2.243 -18.546)"/>
    </g>
  </g>
</svg>
